<svg xmlns="http://www.w3.org/2000/svg" fill="none" viewBox="0 0 24 24"><path fill="#CBD5E1" d="M12 2C6.48 2 2 6.48 2 12s4.48 10 10 10 10-4.48 10-10S17.52 2 12 2Zm0 18c-4.42 0-8-3.58-8-8s3.58-8 8-8 8 3.58 8 8-3.58 8-8 8Z"/><mask id="a" width="18" height="18" x="3" y="3" maskUnits="userSpaceOnUse" style="mask-type:alpha"><circle cx="12" cy="12" r="9" fill="#D9D9D9"/></mask><g mask="url(#a)"><path fill="#039" d="M.428 3h23.143v18H.428V3Z"/><path fill="#FC0" d="m12 5.864-.257.889.428.089L12 5.864Z"/><path fill="#FC0" d="m12 5.864.257.889-.428.089.17-.978Z"/><path fill="#FC0" d="m12.816 6.475-.895.029.047.445.848-.474Z"/><path fill="#FC0" d="m12.817 6.476-.74.53-.212-.39.952-.14Z"/><path fill="#FC0" d="m12.502 7.471-.292-.875-.4.192.692.683Z"/><path fill="#FC0" d="m12.503 7.47-.711-.558.299-.335.412.894Z"/><path fill="#FC0" d="m11.183 6.475.896.029-.047.445-.849-.474Z"/><path fill="#FC0" d="m11.183 6.476.74.53.211-.39-.951-.14Z"/><path fill="#FC0" d="m11.497 7.471.293-.875.399.192-.692.683Z"/><path fill="#FC0" d="m11.497 7.47.711-.558-.299-.335-.412.894ZM12 16.53l-.257.89.428.088-.171-.977Z"/><path fill="#FC0" d="m12 16.53.257.89-.428.088.17-.977Z"/><path fill="#FC0" d="m12.816 17.142-.895.029.047.445.848-.474Z"/><path fill="#FC0" d="m12.817 17.143-.74.53-.212-.39.952-.14Z"/><path fill="#FC0" d="m12.502 18.138-.292-.875-.4.192.692.683Z"/><path fill="#FC0" d="m12.503 18.138-.711-.56.299-.335.412.895Z"/><path fill="#FC0" d="m11.183 17.142.896.029-.047.445-.849-.474Z"/><path fill="#FC0" d="m11.183 17.143.74.53.211-.39-.951-.14Z"/><path fill="#FC0" d="m11.497 18.138.293-.875.399.192-.692.683Z"/><path fill="#FC0" d="m11.497 18.138.711-.56-.299-.335-.412.895Zm-4.64-6.941-.257.89.429.088-.172-.978Z"/><path fill="#FC0" d="m6.857 11.197.257.89-.428.088.171-.978Z"/><path fill="#FC0" d="m7.674 11.809-.896.029.047.445.849-.474Z"/><path fill="#FC0" d="m7.674 11.81-.74.53-.211-.39.951-.14Z"/><path fill="#FC0" d="m7.36 12.805-.293-.875-.399.191.691.684Z"/><path fill="#FC0" d="m7.36 12.804-.711-.559.299-.335.412.894Z"/><path fill="#FC0" d="m6.04 11.809.896.029-.047.445-.849-.474Z"/><path fill="#FC0" d="m6.04 11.81.74.53.212-.39-.952-.14Z"/><path fill="#FC0" d="m6.355 12.805.292-.875.4.191-.692.684Z"/><path fill="#FC0" d="m6.354 12.804.711-.559-.299-.335-.412.894Zm2.635-4.579.711-.558-.3-.336-.411.894Z"/><path fill="#FC0" d="m8.99 8.226.291-.875.4.191-.692.684Z"/><path fill="#FC0" d="m8.675 7.232.739.529.212-.392-.95-.137Z"/><path fill="#FC0" d="m8.676 7.231.895.025-.05.448-.845-.473Z"/><path fill="#FC0" d="m9.488 6.62-.249.885.424.092-.175-.977Z"/><path fill="#FC0" d="m9.49 6.62.258.888-.423.086.164-.974Z"/><path fill="#FC0" d="m9.996 8.228-.712-.565.294-.332.418.897Z"/><path fill="#FC0" d="m9.997 8.228-.3-.877-.395.187.695.69Z"/><path fill="#FC0" d="m10.306 7.234-.734.528-.215-.398.949-.13Z"/><path fill="#FC0" d="m10.306 7.234-.894.018.053.452.841-.47Zm-2.219 2.969-.292-.875-.4.192.692.683Z"/><path fill="#FC0" d="m8.088 10.203-.711-.56.299-.334.412.894Z"/><path fill="#FC0" d="m7.08 10.205.713-.565-.294-.331-.419.896Z"/><path fill="#FC0" d="m7.08 10.205.299-.876.395.187-.694.69Z"/><path fill="#FC0" d="m6.77 9.211.734.528.215-.398-.949-.13Z"/><path fill="#FC0" d="m6.77 9.212.894.017-.052.453-.842-.47Z"/><path fill="#FC0" d="m8.401 9.21-.738.528-.213-.392.951-.137Z"/><path fill="#FC0" d="m8.4 9.209-.894.025.049.447.846-.472Z"/><path fill="#FC0" d="m7.588 8.598.25.885-.425.09.175-.975Z"/><path fill="#FC0" d="m7.587 8.597-.259.888.423.086-.164-.974Zm.816 5.955-.896.032.046.444.85-.476Z"/><path fill="#FC0" d="m8.404 14.554-.743.53-.21-.387.953-.143Z"/><path fill="#FC0" d="m8.086 15.548-.286-.874-.403.196.689.678Z"/><path fill="#FC0" d="m8.087 15.547-.71-.554.304-.338.406.892Z"/><path fill="#FC0" d="m7.08 15.553.714-.569-.293-.33-.42.899Z"/><path fill="#FC0" d="m7.08 15.552.301-.877.394.185-.695.692Z"/><path fill="#FC0" d="m7.592 13.946.241.88-.418.094.177-.974Z"/><path fill="#FC0" d="m7.59 13.945-.26.887.417.082-.157-.97Z"/><path fill="#FC0" d="m6.771 14.558.894.017-.052.453-.842-.47Z"/><path fill="#FC0" d="m6.772 14.558.733.527.215-.398-.948-.13Zm3.491 1.783-.896.032.046.444.85-.476Z"/><path fill="#FC0" d="m10.264 16.343-.743.53-.21-.387.953-.143Z"/><path fill="#FC0" d="m9.946 17.337-.286-.874-.403.196.69.678Z"/><path fill="#FC0" d="m9.947 17.336-.71-.554.304-.338.406.892Z"/><path fill="#FC0" d="m8.94 17.342.714-.568-.292-.33-.421.898Z"/><path fill="#FC0" d="m8.94 17.34.302-.876.393.185-.695.692Z"/><path fill="#FC0" d="m9.453 15.735.24.88-.418.094.178-.974Z"/><path fill="#FC0" d="m9.45 15.734-.26.887.417.082-.156-.97Z"/><path fill="#FC0" d="m8.632 16.347.894.017-.053.453-.841-.47Z"/><path fill="#FC0" d="m8.632 16.347.733.527.216-.398-.95-.13Zm8.511-5.15.257.89-.429.088.172-.978Z"/><path fill="#FC0" d="m17.143 11.197-.257.89.428.088-.171-.978Z"/><path fill="#FC0" d="m16.326 11.809.896.029-.047.445-.849-.474Z"/><path fill="#FC0" d="m16.326 11.81.74.53.211-.39-.951-.14Z"/><path fill="#FC0" d="m16.64 12.805.293-.875.399.191-.692.684Z"/><path fill="#FC0" d="m16.64 12.804.711-.559-.299-.335-.412.894Z"/><path fill="#FC0" d="m17.96 11.809-.896.029.047.445.848-.474Z"/><path fill="#FC0" d="m17.96 11.81-.74.53-.212-.39.952-.14Z"/><path fill="#FC0" d="m17.645 12.805-.292-.875-.4.191.692.684Z"/><path fill="#FC0" d="m17.646 12.804-.711-.559.299-.335.412.894ZM15.01 8.225l-.71-.558.299-.336.412.894Z"/><path fill="#FC0" d="m15.01 8.226-.291-.875-.4.191.692.684Z"/><path fill="#FC0" d="m15.325 7.232-.739.529-.212-.392.95-.137Z"/><path fill="#FC0" d="m15.324 7.231-.895.025.049.448.846-.473Z"/><path fill="#FC0" d="m14.511 6.62.25.885-.424.092.175-.977Z"/><path fill="#FC0" d="m14.51 6.62-.258.888.423.086-.165-.974Z"/><path fill="#FC0" d="m14.004 8.228.712-.565-.294-.332-.418.897Z"/><path fill="#FC0" d="m14.003 8.228.3-.877.394.187-.694.69Z"/><path fill="#FC0" d="m13.694 7.234.734.528.215-.398-.949-.13Z"/><path fill="#FC0" d="m13.694 7.234.894.018-.053.452-.841-.47Zm2.219 2.969.292-.875.399.192-.691.683Z"/><path fill="#FC0" d="m15.912 10.203.711-.56-.299-.334-.412.894Z"/><path fill="#FC0" d="m16.92 10.205-.713-.565.294-.331.419.896Z"/><path fill="#FC0" d="m16.92 10.205-.299-.876-.395.187.694.69Z"/><path fill="#FC0" d="m17.23 9.211-.734.528-.215-.398.948-.13Z"/><path fill="#FC0" d="m17.23 9.212-.895.017.053.453.842-.47Z"/><path fill="#FC0" d="m15.599 9.21.738.528.212-.392-.95-.137Z"/><path fill="#FC0" d="m15.6 9.209.894.025-.049.447-.846-.472Z"/><path fill="#FC0" d="m16.412 8.598-.25.885.425.09-.175-.975Z"/><path fill="#FC0" d="m16.413 8.597.259.888-.423.086.164-.974Zm-.816 5.955.896.032-.046.444-.85-.476Z"/><path fill="#FC0" d="m15.596 14.554.743.53.21-.387-.953-.143Z"/><path fill="#FC0" d="m15.914 15.548.286-.874.403.196-.689.678Z"/><path fill="#FC0" d="m15.913 15.547.71-.554-.304-.338-.406.892Z"/><path fill="#FC0" d="m16.92 15.553-.714-.569.293-.33.42.899Z"/><path fill="#FC0" d="m16.92 15.552-.302-.877-.393.185.695.692Z"/><path fill="#FC0" d="m16.407 13.946-.24.88.418.094-.178-.974Z"/><path fill="#FC0" d="m16.41 13.945.26.887-.417.082.157-.97Z"/><path fill="#FC0" d="m17.229 14.558-.895.017.053.453.842-.47Z"/><path fill="#FC0" d="m17.228 14.558-.733.527-.215-.398.948-.13Zm-3.491 1.783.896.032-.046.444-.85-.476Z"/><path fill="#FC0" d="m13.736 16.343.742.53.21-.387-.952-.143Z"/><path fill="#FC0" d="m14.054 17.337.286-.874.403.196-.69.678Z"/><path fill="#FC0" d="m14.052 17.336.71-.554-.303-.338-.407.892Z"/><path fill="#FC0" d="m15.059 17.342-.713-.568.292-.33.421.898Z"/><path fill="#FC0" d="m15.06 17.34-.302-.876-.393.185.695.692Z"/><path fill="#FC0" d="m14.547 15.735-.24.88.418.094-.178-.974Z"/><path fill="#FC0" d="m14.55 15.734.26.887-.417.082.156-.97Z"/><path fill="#FC0" d="m15.368 16.347-.894.017.053.453.841-.47Z"/><path fill="#FC0" d="m15.368 16.347-.733.527-.216-.398.949-.13Z"/></g></svg>