<svg xmlns="http://www.w3.org/2000/svg" fill="none" viewBox="0 0 24 24"><path fill="#CBD5E1" d="M12 2C6.48 2 2 6.48 2 12s4.48 10 10 10 10-4.48 10-10S17.52 2 12 2Zm0 18c-4.42 0-8-3.58-8-8s3.58-8 8-8 8 3.58 8 8-3.58 8-8 8Z"/><mask id="a" width="18" height="18" x="3" y="3" maskUnits="userSpaceOnUse" style="mask-type:alpha"><circle cx="12" cy="12" r="9" fill="#D9D9D9"/></mask><g fill-rule="evenodd" clip-rule="evenodd" mask="url(#a)"><path fill="#fff" d="M.428 3h23.143v18H.428V3Z"/><path fill="#002654" d="M.428 3h7.714v18H.428V3Z"/><path fill="#CE1126" d="M15.858 3h7.713v18h-7.713V3Z"/></g></svg>