<svg xmlns="http://www.w3.org/2000/svg" fill="none" viewBox="0 0 24 24"><path fill="#CBD5E1" d="M12 2C6.48 2 2 6.48 2 12s4.48 10 10 10 10-4.48 10-10S17.52 2 12 2Zm0 18c-4.42 0-8-3.58-8-8s3.58-8 8-8 8 3.58 8 8-3.58 8-8 8Z"/><mask id="a" width="18" height="18" x="3" y="3" maskUnits="userSpaceOnUse" style="mask-type:alpha"><circle cx="12" cy="12" r="9" fill="#D9D9D9"/></mask><g mask="url(#a)"><path fill="#AA151B" d="M.428 3h23.143v18H.428V3Z"/><path fill="#F1BF00" d="M.428 7.5h23.143v9H.428v-9Z"/><path fill="#AD1519" d="m5.032 10.999-.03-.004-.035-.037-.026-.015-.021-.03s-.026-.042-.015-.075c.011-.034.033-.045.05-.057a.42.42 0 0 1 .055-.019l.036-.014.047-.012.018-.011c.008 0 .026 0 .036-.008l.037-.007.057.004h.174c.014 0 .043.011.05.015.025.01.049.018.073.026.018.004.058.011.08.022a.132.132 0 0 1 .04.038l.017.037v.042l-.018.03-.021.037-.03.023s-.017.018-.035.015c-.015 0-.174-.03-.275-.03-.102 0-.264.034-.264.034"/><path fill="#C8B100" d="M5.249 10.762c0-.049.021-.086.047-.086.029 0 .05.037.05.09 0 .049-.021.09-.05.09-.03 0-.047-.041-.047-.094Z"/><path fill="#C8B100" d="M5.274 10.762c0-.045.01-.078.025-.078.011 0 .022.037.022.078 0 .05-.01.083-.022.083-.014 0-.021-.038-.021-.083"/><path fill="#C8B100" d="M5.267 10.669c0-.015.014-.03.029-.03.014 0 .036.015.036.03 0 .018-.018.033-.036.033s-.03-.015-.03-.033Z"/><path fill="#C8B100" d="M5.321 10.657v.023h-.05v-.023h.018v-.045h-.026v-.022h.026v-.019h.018v.019h.021v.022h-.021v.045h.014Z"/><path fill="#C8B100" d="M5.343 10.657v.023h-.09v-.023h.035v-.045h-.025v-.022h.025v-.019h.019v.019h.021v.022h-.021v.045h.036Zm-.043.338h-.17v-.041l-.012-.045-.007-.057c-.047-.063-.09-.104-.105-.093.004-.011.008-.023.018-.027.04-.026.127.038.188.136l.019.026h.137l.014-.027c.066-.1.149-.16.188-.135.011.004.015.016.019.027-.015-.011-.058.03-.105.093l-.008.057-.007.045-.003.041h-.17"/><path fill="#C8B100" d="m5.05 11.074-.018-.038a.953.953 0 0 1 .531 0l-.018.03a.218.218 0 0 0-.01.03.8.8 0 0 0-.24-.03.75.75 0 0 0-.234.03l-.011-.022Z"/><path fill="#C8B100" d="M5.296 11.164c.086 0 .18-.015.213-.023.022-.007.036-.019.036-.03 0-.007-.007-.011-.014-.015a.784.784 0 0 0-.235-.03.76.76 0 0 0-.232.03c-.007 0-.01.008-.014.011 0 .015.01.027.036.034.036.008.127.023.21.023Zm.271-.169-.018-.019s-.022.011-.047.008c-.022 0-.033-.038-.033-.038s-.025.026-.047.026c-.025 0-.036-.022-.036-.022s-.025.019-.047.015c-.022 0-.043-.03-.043-.03s-.022.03-.044.03c-.021.004-.036-.019-.036-.019s-.014.023-.04.026c-.025.004-.05-.022-.05-.022s-.018.026-.036.037c-.019 0-.044-.015-.044-.015l-.007.02-.01.003.006.019a.943.943 0 0 1 .26-.034c.11 0 .2.015.268.037l.007-.022"/><path fill="#C8B100" d="M5.3 10.901h.006a.039.039 0 0 0 0 .015c0 .023.015.038.037.038a.035.035 0 0 0 .022-.007.038.038 0 0 0 .014-.02l.007-.01v.014c.004.019.022.03.04.03.022 0 .036-.015.036-.037v-.004l.014-.015.008.019a.035.035 0 0 0-.004.015c0 .01.004.02.01.026a.035.035 0 0 0 .026.011.038.038 0 0 0 .033-.019l.007-.007v.011c0 .011.004.023.014.026 0 0 .015 0 .037-.015l.025-.026v.015s-.018.03-.036.038c-.007.007-.018.015-.03.01-.01 0-.02-.01-.024-.022-.008.008-.015.008-.026.008-.021 0-.043-.011-.05-.03a.057.057 0 0 1-.04.019.058.058 0 0 1-.043-.022.057.057 0 0 1-.063.009.058.058 0 0 1-.02-.017.059.059 0 0 1-.042.024.056.056 0 0 1-.046-.017.058.058 0 0 1-.043.023.053.053 0 0 1-.04-.02c-.007.02-.029.03-.05.03-.008 0-.018 0-.026-.007-.003.012-.014.023-.025.023-.01 0-.022 0-.032-.008l-.037-.037.004-.019.029.026c.018.015.032.015.032.015.011 0 .015-.015.015-.026v-.011l.007.007a.038.038 0 0 0 .033.02c.01 0 .018-.005.025-.012a.038.038 0 0 0 .01-.026.035.035 0 0 0 0-.015v-.02l.015.016v.004c0 .022.018.037.036.037.022 0 .037-.011.04-.034v-.01l.007.01c.008.015.022.027.037.027.025 0 .04-.015.04-.038v-.011h.01"/><path fill="#C8B100" d="M5.296 10.998a.847.847 0 0 0-.264.038l-.011-.008.003-.01a.94.94 0 0 1 .272-.038c.108 0 .206.015.275.037 0 0 .007.008.003.011l-.01.008a.955.955 0 0 0-.268-.037Z"/><path fill="#fff" d="M5.194 11.04c0-.011.008-.015.019-.015.003 0 .007.002.01.004a.015.015 0 0 1 .004.01c0 .008-.007.016-.014.016h-.007a.014.014 0 0 1-.006-.003.015.015 0 0 1-.006-.012Z"/><path fill="#AD1519" d="M5.3 11.043h-.037c-.003 0-.01 0-.01-.01l.01-.012h.072a.011.011 0 0 1 .007.011.012.012 0 0 1-.002.008.01.01 0 0 1-.008.004h-.036"/><path fill="#058E6E" d="M5.13 11.059h-.026c-.004 0-.01 0-.01-.008-.001-.002 0-.005.001-.007a.01.01 0 0 1 .005-.004l.026-.004.025-.003c.007 0 .01 0 .014.007l.001.005a.011.011 0 0 1-.002.005.01.01 0 0 1-.004.004.01.01 0 0 1-.005.001h-.026"/><path fill="#AD1519" d="m5.032 11.074.01-.015h.026l-.015.022-.021-.007Z"/><path fill="#fff" d="M5.368 11.04c0-.011.007-.015.015-.015h.006l.006.003a.015.015 0 0 1 .006.012c0 .002 0 .005-.002.007a.015.015 0 0 1-.004.005.014.014 0 0 1-.006.003h-.006a.014.014 0 0 1-.01-.005.015.015 0 0 1-.005-.01Z"/><path fill="#058E6E" d="M5.466 11.059h.021a.01.01 0 0 0 .005 0 .011.011 0 0 0 .008-.004.011.011 0 0 0 .002-.004l-.001-.004a.011.011 0 0 0-.006-.006l-.004-.001-.022-.004-.025-.003c-.007 0-.01 0-.015.007 0 .008.004.011.011.015h.026"/><path fill="#AD1519" d="m5.563 11.077-.01-.018h-.026l.011.022.022-.004m-.264.064a.87.87 0 0 1-.217-.022.89.89 0 0 1 .437 0 .902.902 0 0 1-.217.022"/><path fill="#C8B100" d="m5.563 10.95-.003-.011c-.008 0-.011 0-.015.007 0 .008 0 .015.007.015 0 0 .008 0 .011-.011Zm-.17-.03c0-.008 0-.015-.007-.015 0 0-.007.004-.007.011 0 .008 0 .015.007.015l.011-.011m-.195 0 .003-.015c.008 0 .011.004.011.011 0 .008 0 .015-.007.015l-.007-.011Zm-.17.03.003-.011c.008 0 .011 0 .015.007 0 .008 0 .015-.007.015 0 0-.008 0-.011-.011Zm.264-.131-.03.018.022.05.008.003.007-.004.025-.049-.032-.018Z"/><path fill="#C8B100" d="m5.23 10.894.015.018.047-.015.004-.007-.004-.008-.047-.01-.014.022Zm.13 0-.01.018-.047-.015-.007-.007.007-.008.047-.01.01.022Zm-.256-.057-.025.027.032.037.008.004.003-.004.011-.049-.029-.01m-.047.078.015.019.043-.023v-.007L5.11 10.9l-.047-.003-.01.022m.131-.025-.011.022h-.044l-.007-.007.004-.011.043-.023.018.019m-.181.033v.023l-.05.007-.008-.003v-.008l.037-.034.021.015Z"/><path fill="#C8B100" d="M5.1 10.909c0-.012.008-.02.019-.02.01 0 .018.008.018.02a.019.019 0 0 1-.007.01.017.017 0 0 1-.011.005.017.017 0 0 1-.012-.005.019.019 0 0 1-.007-.01Zm.391-.072.025.027-.032.037-.008.004-.003-.004-.011-.049.029-.01m.051.078-.018.019-.044-.023v-.007l.004-.008.047-.003.01.022Z"/><path fill="#C8B100" d="m5.411 10.894.011.022h.047l.007-.007-.003-.011-.044-.023-.018.019Zm.17.033.004.023.047.007.007-.003v-.008l-.036-.034-.022.015Zm-.3-.037a.02.02 0 0 1 .005-.01.018.018 0 0 1 .01-.005c.01 0 .018.008.018.015a.02.02 0 0 1-.005.013.018.018 0 0 1-.013.006.018.018 0 0 1-.01-.007.02.02 0 0 1-.005-.012Z"/><path fill="#C8B100" d="M5.458 10.909c0-.012.011-.02.018-.02a.02.02 0 0 1 .013.006.02.02 0 0 1 .006.014.019.019 0 0 1-.007.01.017.017 0 0 1-.012.005.017.017 0 0 1-.011-.005.019.019 0 0 1-.007-.01Zm-.517.048-.021-.026c-.008-.007-.026-.011-.026-.011 0-.004.011-.011.022-.011.003 0 .006 0 .008.002a.019.019 0 0 1 .006.005v-.007s.011 0 .015.01v.038"/><path fill="#C8B100" d="M4.941 10.95a.01.01 0 0 1 .018 0c.008.004.011.011.008.019l-.018-.004c-.008-.004-.011-.015-.008-.019m.705.011.022-.026a.066.066 0 0 1 .025-.011c0-.004-.01-.011-.021-.011a.022.022 0 0 0-.015.007v-.007s-.01 0-.014.01v.027l.003.011Z"/><path fill="#C8B100" d="M5.646 10.95c0-.007-.01-.007-.018 0-.007.004-.007.011-.003.019l.018-.004c.007-.004.007-.015.003-.019m-.734.417h.774v-.207h-.774v.21-.003Zm.08.142a.035.035 0 0 1 .014 0h.597a.05.05 0 0 1-.025-.017.053.053 0 0 1-.011-.028c0-.023.018-.041.036-.049H5.01a.046.046 0 0 1-.018 0 .052.052 0 0 1 .036.049.05.05 0 0 1-.01.029.046.046 0 0 1-.026.016Z"/><path fill="#C8B100" d="M5.006 11.505h.579c.022 0 .036.011.036.026s-.014.03-.036.03h-.579c-.018 0-.036-.015-.036-.03s.018-.03.036-.03m0-.139h.579c.022 0 .036.015.036.027 0 .015-.014.022-.036.022h-.579c-.018 0-.036-.007-.036-.022 0-.012.018-.023.036-.023"/><path fill="#005BBF" d="M5.838 14.902a.285.285 0 0 1-.134-.03.294.294 0 0 0-.137-.03.295.295 0 0 0-.134.03.292.292 0 0 1-.137.03.275.275 0 0 1-.134-.03.295.295 0 0 0-.134-.03.28.28 0 0 0-.134.03.292.292 0 0 1-.137.03v.09a.299.299 0 0 0 .137-.033.29.29 0 0 1 .134-.03c.05 0 .098.01.134.03a.283.283 0 0 0 .271 0 .296.296 0 0 1 .134-.03.3.3 0 0 1 .137.03c.036.018.08.033.134.033v-.09Z"/><path fill="#CCC" d="M5.838 14.992a.281.281 0 0 1-.134-.033.292.292 0 0 0-.137-.03.295.295 0 0 0-.134.03.3.3 0 0 1-.137.033.273.273 0 0 1-.134-.033.295.295 0 0 0-.134-.03.287.287 0 0 0-.134.03.3.3 0 0 1-.137.033v.087a.299.299 0 0 0 .137-.034.284.284 0 0 1 .134-.026c.05 0 .098.007.134.026a.291.291 0 0 0 .271 0 .3.3 0 0 1 .271.004c.042.02.088.03.134.03v-.087Z"/><path fill="#005BBF" d="M5.838 15.075a.245.245 0 0 1-.134-.03.291.291 0 0 0-.137-.027.296.296 0 0 0-.134.027.259.259 0 0 1-.137.034.272.272 0 0 1-.134-.034.296.296 0 0 0-.134-.03.282.282 0 0 0-.134.03.299.299 0 0 1-.137.034v.086a.259.259 0 0 0 .137-.034.357.357 0 0 1 .268 0 .25.25 0 0 0 .134.034.294.294 0 0 0 .137-.03.296.296 0 0 1 .134-.03.3.3 0 0 1 .137.03c.036.018.08.03.134.03v-.09Z"/><path fill="#CCC" d="M5.838 15.251a.28.28 0 0 1-.134-.03.296.296 0 0 0-.134-.03.295.295 0 0 0-.137.03.3.3 0 0 1-.137.03.246.246 0 0 1-.134-.034.294.294 0 0 0-.134-.026.296.296 0 0 0-.134.03.3.3 0 0 1-.137.03v-.086a.291.291 0 0 0 .137-.034.357.357 0 0 1 .268 0 .28.28 0 0 0 .134.034.295.295 0 0 0 .137-.03.3.3 0 0 1 .137-.03c.051 0 .098.011.134.03.036.019.083.03.134.03v.086Z"/><path fill="#005BBF" d="M5.838 15.337a.284.284 0 0 1-.134-.03.296.296 0 0 0-.134-.03.294.294 0 0 0-.137.03.3.3 0 0 1-.137.03.246.246 0 0 1-.134-.033.293.293 0 0 0-.134-.027.296.296 0 0 0-.134.03.3.3 0 0 1-.137.03v-.086a.292.292 0 0 0 .137-.03.295.295 0 0 1 .134-.03.36.36 0 0 1 .134.026.295.295 0 0 0 .271 0 .361.361 0 0 1 .137-.026c.051 0 .098.011.134.03.036.019.08.03.134.03v.086Z"/><path fill="#C8B100" d="m4.992 14.55.007.019a.098.098 0 0 1-.098.097h.796a.096.096 0 0 1-.068-.028.103.103 0 0 1-.03-.07v-.018a.05.05 0 0 1-.01 0H5.01a.05.05 0 0 1-.018 0Zm.014-.056h.579c.022 0 .036.01.036.03 0 .015-.014.026-.036.026h-.579c-.018 0-.036-.011-.036-.03 0-.015.018-.026.036-.026Z"/><path fill="#C8B100" d="M4.901 14.876h.796v-.214h-.796v.214Z"/><path fill="#AD1519" d="M4.84 13.751c-.08.045-.134.094-.123.12 0 .023.029.038.065.06.054.042.09.113.062.15a.205.205 0 0 0 .077-.166.212.212 0 0 0-.081-.164Z"/><path fill="#CCC" d="M5.014 14.46h.564v-2.873h-.564v2.873Z"/><path fill="#AD1519" d="M6.156 12.664a1.734 1.734 0 0 0-.842-.075c-.34.06-.597.198-.575.315v.007l-.127-.307c-.021-.124.26-.281.637-.345.11-.021.22-.03.332-.027.239 0 .449.03.572.08v.352"/><path fill="#AD1519" d="M5.014 13.024c-.156-.012-.264-.053-.275-.12-.011-.057.043-.113.137-.17.044.005.09.012.138.012v.278Zm.567-.218c.098.015.17.038.206.071l.004.008c.018.037-.069.112-.213.202v-.28"/><path fill="#AD1519" d="M4.663 13.575c-.015-.045.137-.135.354-.218l.282-.12c.3-.138.521-.296.492-.352v-.008c.014.015.036.3.036.3.03.05-.173.207-.448.342-.09.045-.275.112-.362.15-.159.052-.314.16-.3.198l-.054-.288"/><path fill="#C8B100" d="M4.977 12.525c.07-.023.113-.056.09-.113-.014-.037-.05-.037-.1-.022l-.094.037.083.218.029-.011.029-.012-.037-.093v-.004Zm-.043-.101.025-.012c.018-.007.044.004.051.03.007.02.007.038-.018.057a.151.151 0 0 1-.022.01l-.036-.085Zm.264-.094-.033.011h-.028l.047.229.155-.03-.007-.015v-.015l-.09.022-.044-.198m.304.195c.029-.083.061-.162.097-.24a.182.182 0 0 1-.036 0 2.11 2.11 0 0 1-.065.172l-.087-.161-.036.004H5.34c.044.073.086.148.127.225h.036Zm.318-.177.014-.033a.12.12 0 0 0-.061-.023c-.062-.004-.098.023-.101.064-.008.079.115.075.108.127 0 .023-.025.034-.05.03-.03 0-.051-.018-.051-.045h-.01a.28.28 0 0 1-.015.042c.02.012.042.02.065.022.061.008.108-.019.115-.064.008-.075-.119-.078-.112-.127 0-.019.015-.03.047-.026.026 0 .037.015.044.033h.007Z"/><path fill="#AD1519" d="M10.477 10.935s-.025.03-.046.034c-.019 0-.04-.02-.04-.02s-.018.02-.036.023c-.022.004-.051-.022-.051-.022l-.036.037c-.022 0-.04-.011-.04-.011s-.01.015-.025.022h-.015l-.022-.014-.025-.027-.018-.011-.014-.037v-.02c-.004-.022.029-.052.08-.063a.136.136 0 0 1 .072 0c.018-.019.061-.03.108-.03s.087.011.108.026a.194.194 0 0 1 .105-.026c.047 0 .09.011.109.03a.118.118 0 0 1 .072 0c.05.011.083.037.08.064v.018l-.015.038-.021.011-.022.026-.022.012s-.01.007-.014 0c-.015-.004-.026-.019-.026-.019s-.021.015-.036.007c-.018-.007-.036-.037-.036-.037s-.033.03-.05.026a.064.064 0 0 1-.037-.022s-.025.022-.043.019c-.018-.004-.044-.034-.044-.034Z"/><path fill="#C8B100" d="M10.427 10.785c0-.037.022-.075.047-.075.029 0 .047.037.047.075 0 .037-.018.067-.047.067-.025 0-.047-.03-.047-.07"/><path fill="#C8B100" d="M10.456 10.785c0-.038.007-.068.018-.068.014 0 .025.03.025.068 0 .037-.01.063-.022.063-.014 0-.021-.03-.021-.067m-.228.293a.173.173 0 0 0-.018-.038c.175-.05.36-.05.535 0l-.022.03a.199.199 0 0 0-.01.03.8.8 0 0 0-.24-.03.796.796 0 0 0-.238.03l-.007-.022Z"/><path fill="#C8B100" d="M10.474 11.164c.087 0 .18-.015.213-.023.022-.008.036-.019.036-.03 0-.008-.007-.011-.014-.015a.846.846 0 0 0-.235-.03.76.76 0 0 0-.232.03c-.007 0-.01.008-.014.011 0 .015.01.027.036.034.036.008.127.023.21.023Z"/><path fill="#fff" d="M10.68 10.815c0-.008.007-.015.014-.015.008 0 .019.007.019.015 0 .007-.008.015-.018.015a.014.014 0 0 1-.01-.005.015.015 0 0 1-.005-.01Z"/><path fill="#C8B100" d="m10.745 10.995-.018-.019s-.022.011-.047.008c-.022 0-.032-.038-.032-.038s-.026.026-.047.026c-.026 0-.037-.022-.037-.022s-.025.019-.047.015c-.021 0-.043-.03-.043-.03s-.022.03-.043.03c-.022.004-.037-.019-.037-.019s-.01.023-.04.026c-.028.004-.05-.022-.05-.022s-.014.026-.036.037c-.018 0-.044-.015-.044-.015l-.003.02-.011.003.004.019a.943.943 0 0 1 .264-.034c.1 0 .195.015.264.037l.007-.022"/><path fill="#fff" d="M10.239 10.815c0-.008.007-.015.014-.015.008 0 .015.007.015.015a.015.015 0 0 1-.004.01.014.014 0 0 1-.02 0 .015.015 0 0 1-.005-.01Z"/><path fill="#C8B100" d="M10.477 10.901h.008a.038.038 0 0 0 0 .015c0 .023.018.038.036.038a.035.035 0 0 0 .022-.007.037.037 0 0 0 .014-.02l.007-.01v.014c.004.019.022.03.04.03.022 0 .036-.015.036-.037v-.004l.015-.015.007.019a.039.039 0 0 0-.004.015c0 .01.004.02.01.026a.035.035 0 0 0 .026.011.038.038 0 0 0 .033-.019l.007-.007v.011c0 .011.004.023.015.026 0 0 .014 0 .036-.015.021-.015.025-.026.025-.026v.015s-.018.03-.036.038c-.007.007-.018.015-.029.01-.01 0-.022-.01-.025-.022a.053.053 0 0 1-.026.008c-.021 0-.043-.011-.05-.03a.054.054 0 0 1-.04.019c-.018 0-.036-.008-.043-.023a.053.053 0 0 1-.037.015.064.064 0 0 1-.05-.022c-.007.015-.025.022-.043.022-.015 0-.03-.004-.037-.015a.058.058 0 0 1-.047.023.057.057 0 0 1-.04-.02c-.007.02-.028.03-.05.03-.007 0-.018 0-.025-.007-.004.012-.015.023-.026.023-.01 0-.021 0-.032-.008a.155.155 0 0 1-.036-.037l.003-.019.03.026a.053.053 0 0 0 .032.015c.01 0 .014-.015.014-.026v-.011l.007.007a.038.038 0 0 0 .033.02c.01 0 .019-.005.026-.012a.038.038 0 0 0 .01-.026v-.035l.014.016v.004c0 .022.019.037.037.037.021 0 .036-.011.04-.034v-.01l.007.01c.007.015.021.027.036.027.022 0 .04-.015.04-.038v-.011h.007"/><path fill="#C8B100" d="M10.474 10.999a.847.847 0 0 0-.264.037l-.01-.007.003-.011a.934.934 0 0 1 .27-.038c.11 0 .207.015.276.037 0 0 .007.008.003.012l-.01.007a.944.944 0 0 0-.268-.037Z"/><path fill="#fff" d="M10.373 11.04c0-.011.007-.015.018-.015.004 0 .007.002.01.004a.015.015 0 0 1 .004.01.015.015 0 0 1-.004.011.014.014 0 0 1-.01.005c-.011 0-.018-.008-.018-.015Z"/><path fill="#AD1519" d="M10.478 11.043h-.037c-.003 0-.01 0-.01-.01l.01-.012h.073a.01.01 0 0 1 .005.004.01.01 0 0 1 .002.007.012.012 0 0 1-.003.008.01.01 0 0 1-.008.004h-.036"/><path fill="#058E6E" d="M10.307 11.059h-.021a.01.01 0 0 1-.005 0 .011.011 0 0 1-.008-.004.013.013 0 0 1-.002-.004c0-.003.002-.006.003-.008a.01.01 0 0 1 .008-.003l.022-.004.025-.003c.007 0 .011 0 .015.007v.005a.012.012 0 0 1-.002.005.01.01 0 0 1-.004.004.01.01 0 0 1-.005.001h-.026"/><path fill="#AD1519" d="m10.21 11.074.01-.015h.026l-.014.022-.022-.007Z"/><path fill="#fff" d="M10.546 11.04c0-.011.008-.015.015-.015.01 0 .018.004.018.015 0 .007-.007.015-.018.015a.014.014 0 0 1-.01-.005.015.015 0 0 1-.005-.01Z"/><path fill="#058E6E" d="M10.644 11.059h.025a.01.01 0 0 0 .007-.002.011.011 0 0 0 .004-.006c0-.002 0-.005-.002-.007a.01.01 0 0 0-.005-.004l-.026-.004-.025-.003c-.007 0-.01 0-.014.007 0 .008.003.011.01.015h.026"/><path fill="#AD1519" d="m10.738 11.077-.007-.018h-.026l.011.022.022-.004Zm-.264.064a.87.87 0 0 1-.217-.023.892.892 0 0 1 .438 0 .902.902 0 0 1-.218.023"/><path fill="#C8B100" d="m10.742 10.95-.004-.011c-.007 0-.011 0-.015.007l.004.015c.007 0 .01 0 .014-.011Zm-.167-.03c0-.008-.003-.015-.01-.015 0 0-.008.004-.008.011 0 .008 0 .015.007.015l.011-.011Zm-.195 0c0-.008 0-.015.007-.015l.011.011-.007.015c-.008 0-.011-.007-.011-.011Zm-.17.03.004-.011c.007 0 .01 0 .014.007l-.004.015c-.007 0-.01 0-.014-.011Zm.264-.131-.03.018.023.05.007.003.01-.004.022-.049-.032-.018Z"/><path fill="#C8B100" d="m10.409 10.894.014.018.047-.015.004-.007-.004-.008-.047-.01-.014.022Zm.13 0-.01.018-.048-.015-.004-.007v-.008l.051-.01.015.022m-.261-.057-.025.027.033.037.007.004.007-.004.007-.049-.029-.01m-.05.078.018.019.043-.023v-.007l-.003-.008-.047-.003-.011.022Z"/><path fill="#C8B100" d="m10.362 10.894-.011.022h-.047l-.007-.007.003-.011.044-.023.018.019Zm-.177.033v.023l-.051.007-.007-.003v-.008l.036-.034.022.015Z"/><path fill="#C8B100" d="M10.279 10.909c0-.012.007-.02.018-.02a.02.02 0 0 1 .013.006.02.02 0 0 1 .005.014.019.019 0 0 1-.007.01.017.017 0 0 1-.011.005.017.017 0 0 1-.012-.005.019.019 0 0 1-.006-.01Zm.391-.072.024.027-.032.037-.007.004-.004-.004-.01-.049.028-.01m.051.078-.018.019-.044-.023v-.007l.004-.008.047-.003.01.022Z"/><path fill="#C8B100" d="m10.59 10.894.01.022h.048l.007-.007-.004-.011-.043-.023-.018.019Zm.17.033v.023l.05.007.007-.003v-.008l-.036-.034-.022.015Zm-.3-.037c0-.008.007-.015.018-.015.007 0 .014.008.014.015 0 .011-.007.019-.014.019a.018.018 0 0 1-.013-.006.02.02 0 0 1-.005-.013Z"/><path fill="#C8B100" d="M10.637 10.909c0-.012.01-.02.018-.02.01 0 .018.008.018.02 0 .01-.008.015-.018.015a.017.017 0 0 1-.012-.005.019.019 0 0 1-.006-.01Zm-.192-.207a.03.03 0 0 1 .029-.03c.014 0 .036.012.036.03 0 .02-.018.03-.036.03a.033.033 0 0 1-.03-.03Z"/><path fill="#C8B100" d="M10.5 10.691v.023h-.055v-.023h.014v-.049h-.018v-.018h.018V10.6h.022v.023h.022v.022h-.022v.045h.015"/><path fill="#C8B100" d="M10.517 10.691v.023h-.086v-.023h.036v-.049h-.026v-.018h.022V10.6h.022v.023h.022v.022h-.022v.045h.036m-.401.267-.022-.026a.082.082 0 0 0-.026-.011c0-.004.011-.011.022-.011.007 0 .011 0 .015.007v-.007s.01 0 .014.01v.038"/><path fill="#C8B100" d="M10.12 10.95a.01.01 0 0 1 .018 0c.007.004.01.011.003.019l-.018-.004c-.003-.004-.007-.015 0-.019m.702.011.021-.026c.008-.007.026-.011.026-.011 0-.004-.011-.011-.022-.011a.022.022 0 0 0-.014.007v-.007s-.011 0-.015.01v.027l.004.011Z"/><path fill="#C8B100" d="M10.825 10.95c-.004-.007-.011-.007-.018 0-.008.004-.008.011-.004.019l.018-.004c.007-.004.007-.015.004-.019m-.735.417h.774v-.207h-.773v.21-.003Zm.691.142a.035.035 0 0 0-.014 0h-.597c.022-.008.036-.026.036-.045a.052.052 0 0 0-.036-.049h.615-.004a.052.052 0 0 0-.036.049c0 .019.015.037.036.045Z"/><path fill="#C8B100" d="M10.188 11.505h.579c.022 0 .036.011.036.026s-.014.03-.036.03h-.579c-.021 0-.036-.015-.036-.03s.018-.03.036-.03m0-.139h.579c.022 0 .036.015.036.027 0 .015-.014.022-.036.022h-.579c-.021 0-.036-.007-.036-.022 0-.012.015-.023.036-.023"/><path fill="#005BBF" d="M9.939 14.902c.05 0 .097-.01.133-.03a.295.295 0 0 1 .134-.03.31.31 0 0 1 .138.03c.036.02.083.03.133.03a.3.3 0 0 0 .138-.03c.04-.02.085-.03.13-.03a.28.28 0 0 1 .134.03c.036.02.087.03.137.03v.09a.29.29 0 0 1-.137-.033.29.29 0 0 0-.134-.03.27.27 0 0 0-.13.03.299.299 0 0 1-.138.033.28.28 0 0 1-.133-.033.295.295 0 0 0-.138-.03.292.292 0 0 0-.133.03.299.299 0 0 1-.138.033v-.09"/><path fill="#CCC" d="M9.939 14.992c.05 0 .097-.015.133-.033a.295.295 0 0 1 .134-.03c.05 0 .101.011.138.03a.294.294 0 0 0 .27 0 .302.302 0 0 1 .131-.03c.054 0 .101.011.134.03a.31.31 0 0 0 .137.034v.086a.29.29 0 0 1-.137-.034.283.283 0 0 0-.134-.026.27.27 0 0 0-.13.026.3.3 0 0 1-.138.034.246.246 0 0 1-.133-.034.361.361 0 0 0-.271 0 .284.284 0 0 1-.138.034v-.087"/><path fill="#005BBF" d="M9.939 15.075c.05 0 .097-.008.133-.03a.355.355 0 0 1 .134-.027c.05 0 .101.008.138.027a.294.294 0 0 0 .27 0 .302.302 0 0 1 .131-.03.282.282 0 0 1 .134.03.31.31 0 0 0 .137.034v.086a.29.29 0 0 1-.137-.034.288.288 0 0 0-.134-.026.322.322 0 0 0-.13.026.26.26 0 0 1-.138.034.283.283 0 0 1-.133-.03.297.297 0 0 0-.138-.03.292.292 0 0 0-.133.03.3.3 0 0 1-.138.03v-.09"/><path fill="#CCC" d="M9.939 15.251a.281.281 0 0 0 .133-.03.295.295 0 0 1 .134-.03c.05 0 .101.011.138.03a.29.29 0 0 0 .133.03.26.26 0 0 0 .138-.034.293.293 0 0 1 .13-.026c.054 0 .101.011.134.03a.29.29 0 0 0 .137.03v-.086a.29.29 0 0 1-.137-.034.29.29 0 0 0-.134-.026.323.323 0 0 0-.13.026.299.299 0 0 1-.138.034.283.283 0 0 1-.133-.03.294.294 0 0 0-.138-.03.29.29 0 0 0-.133.03.3.3 0 0 1-.138.03v.086"/><path fill="#005BBF" d="M9.939 15.337a.285.285 0 0 0 .133-.03.294.294 0 0 1 .134-.03.31.31 0 0 1 .138.03.29.29 0 0 0 .133.03.287.287 0 0 0 .138-.034.295.295 0 0 1 .13-.026c.054 0 .101.012.134.03.036.019.087.03.137.03v-.086a.289.289 0 0 1-.137-.03.29.29 0 0 0-.134-.03.294.294 0 0 0-.13.026.287.287 0 0 1-.138.034.283.283 0 0 1-.133-.03.3.3 0 0 0-.138-.03.295.295 0 0 0-.133.03.3.3 0 0 1-.138.03v.086"/><path fill="#C8B100" d="m10.781 14.55-.003.019c0 .056.043.097.097.097h-.795a.098.098 0 0 0 .097-.097l-.003-.02h.607Z"/><path fill="#C8B100" d="M10.188 14.494h.579c.022 0 .036.01.036.03 0 .015-.014.026-.036.026h-.579c-.021 0-.036-.011-.036-.03 0-.015.018-.026.036-.026Zm-.108.382h.795v-.214h-.795v.214Z"/><path fill="#AD1519" d="M10.937 13.751c.076.045.13.094.123.12-.004.023-.03.038-.065.06-.058.042-.09.113-.065.15a.205.205 0 0 1-.076-.167.213.213 0 0 1 .083-.163Z"/><path fill="#CCC" d="M10.195 14.46h.564v-2.873h-.564v2.873Z"/><path fill="#AD1519" d="M9.62 12.664c.272-.095.56-.12.843-.075.336.06.593.198.575.314v.008l.127-.307c.021-.124-.264-.282-.637-.345a1.873 1.873 0 0 0-.333-.027c-.242 0-.448.03-.575.079v.353Z"/><path fill="#AD1519" d="M10.76 13.024c.159-.012.264-.053.278-.12.007-.057-.043-.113-.138-.17-.043.005-.09.012-.14.012v.278Zm-.568-.218a.458.458 0 0 0-.206.071v.008c-.018.037.065.112.21.202v-.28"/><path fill="#AD1519" d="M11.11 13.575c.015-.045-.137-.135-.35-.218-.102-.037-.181-.075-.283-.12-.3-.138-.52-.296-.491-.352v-.008c-.015.015-.036.3-.036.3-.03.05.173.207.448.342.087.045.275.112.361.15.156.052.315.16.3.198l.051-.288"/><path fill="#C8B100" d="M9.971 12.54c.022-.086.051-.165.076-.247h-.018a.187.187 0 0 1-.018.003 2.03 2.03 0 0 1-.05.18c-.037-.052-.073-.101-.098-.154l-.036.008H9.79c.05.07.098.141.144.214h.018l.018-.004Zm.217-.247h-.065v.232h.152v-.026h-.094l.004-.207m.246.038.072.011v-.026l-.21-.019v.03a.67.67 0 0 1 .073 0l-.015.21h.058l.018-.202m.087.225c.01 0 .018 0 .029.007l.029.008.025-.109.022.045.029.079.036.007c.014 0 .025.008.036.011l-.011-.026c-.014-.037-.036-.071-.047-.108.036 0 .069-.012.076-.046.004-.022 0-.037-.025-.056-.015-.011-.044-.015-.062-.019l-.087-.018-.05.225Zm.108-.195c.026.007.055.011.055.037v.019c-.011.034-.037.045-.073.034l.018-.09Zm.29.262-.008.075.03.019.032.019.018-.263a.119.119 0 0 1-.025-.011l-.221.143.018.01.014.008.062-.045.083.049-.003-.004Zm-.062-.056.072-.053-.007.087-.065-.038"/><path fill="#AD1519" d="M7.867 9.577c.227 0 .434.038.567.09.167.072.348.101.528.087.098 0 .235.03.373.09a.983.983 0 0 1 .267.176l-.054.052-.014.143-.149.176-.072.068-.18.146-.091.007-.025.08-1.143-.14-1.146.14-.03-.08-.09-.007-.177-.15-.072-.064-.148-.176-.019-.143-.054-.052a.993.993 0 0 1 .271-.176.913.913 0 0 1 .37-.09c.072.007.151.003.238-.008.1-.01.197-.036.29-.075.133-.056.325-.094.56-.094Z"/><path fill="#C8B100" d="M7.885 11.141c-.427 0-.81-.052-1.081-.135a.04.04 0 0 1-.023-.017.042.042 0 0 1-.006-.028c0-.018.01-.037.029-.045a3.81 3.81 0 0 1 1.08-.135c.424 0 .807.053 1.078.135.009.004.016.01.021.018a.05.05 0 0 1-.02.072 3.858 3.858 0 0 1-1.078.135Z"/><path fill="#AD1519" d="M7.881 11.085a3.94 3.94 0 0 1-.994-.116 3.94 3.94 0 0 1 .994-.117c.336-.004.671.034.998.113a3.79 3.79 0 0 1-.998.12Z"/><path fill="#C8B100" d="M7.878 10.777a3.773 3.773 0 0 0-1.085.147c.021-.012.018-.038-.011-.113-.036-.094-.087-.09-.087-.09.3-.094.723-.15 1.186-.15a4.29 4.29 0 0 1 1.193.15s-.054-.004-.09.086c-.029.075-.029.105-.007.113a3.972 3.972 0 0 0-1.096-.139"/><path fill="#C8B100" d="M7.881 10.571c-.466 0-.886.056-1.186.15a.034.034 0 0 1-.014.003.036.036 0 0 1-.033-.025.04.04 0 0 1 .002-.03.037.037 0 0 1 .023-.02c.394-.11.8-.163 1.208-.157.478 0 .911.064 1.212.158.021.007.032.03.025.049-.007.018-.029.03-.047.022-.304-.094-.723-.15-1.19-.15Z"/><path fill="#fff" d="M7.552 10.68c0-.019.015-.038.036-.038.018 0 .036.02.036.038a.036.036 0 0 1-.036.037.036.036 0 0 1-.025-.01.038.038 0 0 1-.01-.027Z"/><path fill="#AD1519" d="M7.881 10.71H7.77a.036.036 0 0 1-.026-.011.038.038 0 0 1 0-.053.036.036 0 0 1 .026-.011h.232c.018 0 .036.018.036.037s-.018.038-.037.038h-.115"/><path fill="#058E6E" d="m7.31 10.744-.083.007c-.022.004-.036-.011-.044-.03a.039.039 0 0 1 .01-.029.039.039 0 0 1 .012-.009.034.034 0 0 1 .014-.003l.08-.011.087-.011a.04.04 0 0 1 .04.033.032.032 0 0 1-.033.038l-.083.015Z"/><path fill="#fff" d="M6.974 10.751c0-.022.018-.037.04-.037.021 0 .035.015.035.037 0 .019-.014.038-.036.038a.035.035 0 0 1-.025-.011.038.038 0 0 1-.01-.027"/><path fill="#AD1519" d="m6.72 10.819.044-.06.12.014-.095.075-.065-.03"/><path fill="#058E6E" d="m8.456 10.744.083.007c.018.004.036-.011.04-.03a.04.04 0 0 0-.008-.027.036.036 0 0 0-.024-.014l-.08-.011-.087-.012a.036.036 0 0 0-.036.02.038.038 0 0 0-.004.014.032.032 0 0 0 .033.038l.083.015Z"/><path fill="#fff" d="M8.142 10.68c0-.019.014-.038.036-.038.021 0 .036.02.036.038a.037.037 0 0 1-.036.037.036.036 0 0 1-.026-.01.038.038 0 0 1-.01-.027Zm.57.071c0-.022.019-.037.037-.037.022 0 .04.015.04.037 0 .019-.015.038-.036.038a.036.036 0 0 1-.026-.011.038.038 0 0 1-.01-.027"/><path fill="#AD1519" d="m9.042 10.819-.04-.06-.12.014.095.075.065-.03Z"/><path fill="#C8B100" d="m7.02 9.892.051.038.072-.12a.274.274 0 0 1-.103-.115.287.287 0 0 1-.027-.155c.007-.154.188-.285.423-.285.12 0 .228.037.308.09 0-.023 0-.045.007-.068a.611.611 0 0 0-.315-.078c-.267 0-.477.153-.488.34a.345.345 0 0 0 .109.286l-.037.067Z"/><path fill="#C8B100" d="M7.024 9.892a.345.345 0 0 1-.144-.273c0-.12.072-.23.191-.3a.316.316 0 0 0-.123.255.344.344 0 0 0 .109.25l-.033.068Z"/><path fill="#C8B100" d="M6.218 10.016a.337.337 0 0 1-.083-.221c0-.049.01-.098.036-.143.072-.157.304-.27.578-.27.073 0 .145.008.214.023l-.036.052a.89.89 0 0 0-.178-.015c-.253 0-.462.102-.524.237a.27.27 0 0 0 0 .232.272.272 0 0 0 .072.094l-.094.154-.047-.038.062-.105Z"/><path fill="#C8B100" d="M6.312 9.499a.387.387 0 0 0-.145.153.332.332 0 0 0 .05.364l-.054.094a.4.4 0 0 1-.083-.244c0-.15.09-.281.232-.367Zm1.566-.334c.061 0 .115.041.126.097a.834.834 0 0 1 .015.17v.04a.993.993 0 0 0 .047.304l-.188.188-.188-.188c.025-.067.043-.18.047-.304v-.04c0-.061.007-.117.014-.17.01-.056.065-.097.127-.097Z"/><path fill="#C8B100" d="M7.878 9.225c.036 0 .061.022.065.052a.969.969 0 0 1 .014.158v.037c.004.12.022.225.044.29l-.123.12-.123-.12a.942.942 0 0 0 .043-.29v-.037a1.09 1.09 0 0 1 .014-.158.075.075 0 0 1 .025-.036.07.07 0 0 1 .04-.016Zm.857.667-.047.038-.073-.12a.285.285 0 0 0 .13-.236V9.54c-.007-.154-.191-.285-.423-.285a.528.528 0 0 0-.307.09.888.888 0 0 0-.007-.068.611.611 0 0 1 .314-.078c.268 0 .478.153.485.34a.345.345 0 0 1-.109.286l.037.067Z"/><path fill="#C8B100" d="M8.73 9.892a.328.328 0 0 0 .107-.118.35.35 0 0 0 .042-.155c0-.12-.076-.23-.191-.3a.316.316 0 0 1 .122.255.344.344 0 0 1-.115.25l.036.068Z"/><path fill="#C8B100" d="M9.541 10.016a.337.337 0 0 0 .047-.364c-.072-.157-.304-.27-.579-.27-.072 0-.145.008-.217.023l.037.052a.886.886 0 0 1 .18-.015c.254 0 .463.102.521.237a.282.282 0 0 1-.069.326l.09.154.048-.038-.062-.105"/><path fill="#C8B100" d="M9.443 9.499c.061.036.111.09.145.153a.336.336 0 0 1-.05.364l.057.094a.4.4 0 0 0 .083-.244c0-.15-.094-.281-.235-.367Z"/><path fill="#fff" d="M7.813 9.802c0-.037.028-.067.065-.067a.07.07 0 0 1 .068.067c0 .038-.032.064-.068.064a.064.064 0 0 1-.045-.018.069.069 0 0 1-.02-.046Z"/><path fill="#fff" d="M7.813 9.675c0-.038.028-.068.065-.068a.07.07 0 0 1 .068.068c0 .037-.032.064-.068.064a.064.064 0 0 1-.045-.019.069.069 0 0 1-.02-.045Zm.014-.139a.05.05 0 0 1 .05-.049c.03 0 .055.023.055.05 0 .03-.025.052-.054.052-.03 0-.051-.023-.051-.053Zm.014-.124c0-.018.015-.037.037-.037.021 0 .036.019.036.037 0 .02-.015.038-.036.038a.036.036 0 0 1-.026-.011.038.038 0 0 1-.01-.027Zm.008-.105a.03.03 0 0 1 .029-.03c.018 0 .032.012.032.03 0 .015-.014.03-.032.03a.028.028 0 0 1-.02-.008.03.03 0 0 1-.01-.022Z"/><path fill="#C8B100" d="m7.885 10.192.043.008a.179.179 0 0 0 .026.156.167.167 0 0 0 .233.038.176.176 0 0 0 .063-.082c.004 0 .018-.063.025-.063.008 0 .004.067.008.063.01.087.086.143.17.143a.16.16 0 0 0 .125-.054.174.174 0 0 0 .044-.134l.055-.056.025.075a.155.155 0 0 0-.014.071c.001.043.02.084.05.114.03.029.07.045.112.044a.16.16 0 0 0 .138-.071l.032-.045v.056c0 .056.022.105.073.112 0 0 .061.004.144-.06.076-.063.12-.116.12-.116l.007.064s-.065.105-.138.15c-.036.022-.097.049-.144.037-.05-.007-.087-.048-.109-.097a.229.229 0 0 1-.25.002.241.241 0 0 1-.09-.103.252.252 0 0 1-.19.08.245.245 0 0 1-.186-.092.248.248 0 0 1-.166.068.243.243 0 0 1-.206-.113.243.243 0 0 1-.206.113.248.248 0 0 1-.17-.068.256.256 0 0 1-.186.093.244.244 0 0 1-.19-.081.242.242 0 0 1-.09.102.23.23 0 0 1-.25-.001c-.022.049-.054.09-.109.101-.043.008-.105-.019-.144-.041-.073-.045-.138-.15-.138-.15l.007-.064s.044.053.123.116c.08.068.141.06.141.06.051-.007.073-.056.073-.112v-.056l.036.045a.168.168 0 0 0 .134.075c.09 0 .162-.075.162-.162a.155.155 0 0 0-.014-.075l.029-.07.054.055v.023c0 .09.072.165.166.165.087 0 .16-.056.17-.143 0 0 0-.06.008-.063.007 0 .021.063.025.06a.175.175 0 0 0 .063.085.17.17 0 0 0 .1.03.161.161 0 0 0 .137-.068.175.175 0 0 0 .025-.156l.044-.008Z"/><path fill="#fff" d="M9.056 10.414c.011-.03 0-.06-.021-.068-.018-.008-.044.011-.054.041-.011.03 0 .06.021.068.018.007.044-.011.054-.041Zm-.74-.15c0-.03-.012-.06-.037-.06-.018-.004-.036.018-.043.052-.004.03.01.056.032.06.022 0 .044-.023.047-.053Zm-.865 0c0-.03.014-.06.036-.06.022-.004.04.018.043.052.004.03-.01.056-.032.06-.022 0-.04-.023-.043-.053m-.745.15c-.008-.03 0-.06.021-.067.022-.008.044.011.055.041.01.03 0 .06-.019.068-.021.007-.047-.011-.057-.041Z"/><path fill="#C8B100" d="M7.035 9.9a.19.19 0 0 1 .08.109s0-.012.021-.023c.022-.011.036-.011.036-.011l-.003.049-.011.082a.284.284 0 0 1-.025.06.067.067 0 0 0-.055-.015.063.063 0 0 0-.043.034s-.025-.023-.043-.049l-.04-.075-.025-.041s.018-.008.04 0c.021 0 .028.007.028.007a.189.189 0 0 1 .036-.127m.015.367a.068.068 0 0 1-.022-.037c0-.019 0-.034.011-.045 0 0-.032-.019-.065-.026-.025-.008-.072-.008-.083-.008H6.85l.007.019a.053.053 0 0 0 .018.026.18.18 0 0 0-.109.075.19.19 0 0 0 .127.038l-.007.03v.022l.036-.015c.01-.004.054-.019.072-.037.03-.015.055-.042.055-.042m.097-.018a.062.062 0 0 0-.014-.08l.05-.048a.356.356 0 0 1 .073-.034l.04-.015v.023a.218.218 0 0 1-.008.03.176.176 0 0 1 .123.037.18.18 0 0 1-.105.075.243.243 0 0 0 .026.045h-.037c-.014 0-.057 0-.083-.007a.395.395 0 0 1-.065-.026Z"/><path fill="#AD1519" d="M7.017 10.215c0-.038.036-.075.072-.075s.08.037.08.075a.077.077 0 0 1-.076.075.07.07 0 0 1-.054-.02.076.076 0 0 1-.022-.055Z"/><path fill="#C8B100" d="M7.881 9.78a.216.216 0 0 1 .069.139s.007-.012.032-.02c.026-.01.044-.007.044-.007l-.018.053-.03.09a.307.307 0 0 1-.035.063.076.076 0 0 0-.062-.026.084.084 0 0 0-.058.027s-.021-.027-.036-.064l-.029-.09-.018-.053.044.008c.025.007.032.019.032.019a.2.2 0 0 1 .065-.14Z"/><path fill="#C8B100" d="M7.827 10.192a.076.076 0 0 1-.018-.045c0-.018.003-.037.014-.049 0 0-.029-.026-.065-.037a.24.24 0 0 0-.09-.026l-.044-.008.008.023.014.034a.21.21 0 0 0-.134.063c.036.034.084.06.134.06l-.014.038-.008.022.044-.007c.014-.004.065-.015.09-.027.036-.014.069-.037.069-.037m.108 0a.073.073 0 0 0 .004-.098s.033-.026.065-.037a.282.282 0 0 1 .09-.026l.044-.011-.004.026-.014.034c.05 0 .097.03.13.063a.21.21 0 0 1-.13.06c.003.02.01.041.018.06l-.043-.007-.09-.027a.277.277 0 0 1-.066-.037m.796-.3a.195.195 0 0 0-.08.112l-.025-.022c-.022-.011-.036-.011-.036-.011l.007.049a.309.309 0 0 0 .032.142.072.072 0 0 1 .055-.015.079.079 0 0 1 .047.034l.04-.049a.32.32 0 0 0 .04-.075l.024-.041s-.014-.008-.036 0c-.025 0-.036.007-.036.007a.189.189 0 0 0-.036-.127m-.01.367a.078.078 0 0 0 .02-.037.062.062 0 0 0-.006-.045s.028-.019.061-.027c.025-.007.072-.007.083-.007h.04l-.01.019a.231.231 0 0 1-.015.026.18.18 0 0 1 .105.075.187.187 0 0 1-.127.037l.007.03v.023l-.036-.015a.264.264 0 0 1-.072-.037.186.186 0 0 1-.05-.042Zm-.102-.018a.066.066 0 0 1-.007-.042c0-.019.01-.03.021-.037 0 0-.021-.03-.05-.049a.377.377 0 0 0-.073-.034 2.605 2.605 0 0 1-.036-.015v.023c0 .018.007.03.007.03a.183.183 0 0 0-.126.037.193.193 0 0 0 .108.075s-.01.008-.018.027l-.01.018h.036c.014 0 .061 0 .083-.007a.386.386 0 0 0 .065-.027Z"/><path fill="#AD1519" d="M8.6 10.215c0-.038.037-.075.073-.075s.076.037.076.075c0 .02-.008.039-.021.053a.07.07 0 0 1-.051.022.07.07 0 0 1-.054-.02.076.076 0 0 1-.022-.055Zm.84.165c-.015-.019-.05-.015-.08.007-.029.027-.036.06-.018.083.018.019.054.015.083-.011.026-.023.036-.06.018-.075"/><path fill="#C8B100" d="m9.335 10.425.025-.038c.026-.022.065-.026.083-.007l.004.007s.036-.075.083-.097c.047-.026.123-.019.123-.019a.109.109 0 0 0-.03-.075.1.1 0 0 0-.075-.03.105.105 0 0 0-.087.038l-.007-.038s-.047.011-.068.068a.258.258 0 0 0 0 .135s-.011-.034-.026-.057a.289.289 0 0 0-.087-.06l-.047-.026-.003.019v.03a.276.276 0 0 0-.134.019c.02.038.052.067.09.082l-.029.026a.15.15 0 0 0-.014.02l.047.007.09.007a.53.53 0 0 0 .062-.007m-2.904 0c0-.015-.01-.027-.025-.038-.025-.026-.062-.03-.08-.011l-.007.011s-.036-.075-.083-.101c-.043-.026-.12-.019-.12-.019a.108.108 0 0 1 .03-.074.1.1 0 0 1 .072-.03.11.11 0 0 1 .087.037l.007-.038s.047.011.072.068a.285.285 0 0 1-.003.135s.01-.034.028-.057a.289.289 0 0 1 .087-.06l.047-.026v.049a.276.276 0 0 1 .134.019.172.172 0 0 1-.09.082l.029.026.014.02-.043.007-.094.007a.53.53 0 0 1-.062-.007Z"/><path fill="#AD1519" d="M6.323 10.38c.021-.019.057-.015.086.011.026.023.037.056.015.075-.018.023-.054.019-.08-.007-.029-.023-.036-.06-.018-.075m1.483-.237c0-.041.032-.075.072-.075.04 0 .076.034.076.075 0 .038-.036.075-.072.075a.07.07 0 0 1-.054-.02.075.075 0 0 1-.022-.055Z"/><path fill="#005BBF" d="M7.726 9.022c0-.082.068-.15.155-.15a.15.15 0 0 1 .152.15c0 .083-.069.15-.155.15a.144.144 0 0 1-.106-.042.154.154 0 0 1-.046-.108Z"/><path fill="#C8B100" d="M7.841 8.599v.082h-.086v.083h.083V9h-.105l-.007.022a.16.16 0 0 0 .01.06h.286a.16.16 0 0 0 .011-.06L8.026 9h-.101v-.236h.083V8.68h-.083V8.6h-.087.003Z"/><path fill="#CCC" d="M7.896 15.398a2.879 2.879 0 0 1-1.284-.308.831.831 0 0 1-.337-.314.875.875 0 0 1-.126-.451v-1.2h3.486v1.2c0 .16-.044.316-.126.451a.831.831 0 0 1-.337.314 2.843 2.843 0 0 1-1.276.308Zm-.008-2.273h1.747v-2.006H7.888v2.006Z"/><path fill="#AD1519" d="M7.888 14.325a.863.863 0 0 1-.867.859.87.87 0 0 1-.875-.863v-1.2h1.742v1.2"/><path fill="#C8B100" d="M6.525 15.034c.054.03.13.075.21.097L6.73 13.08h-.206v1.954Zm-.383-.724a.936.936 0 0 0 .199.562v-1.78h-.196v1.218h-.003Z"/><path fill="#C7B500" d="M6.916 15.176a.926.926 0 0 0 .202 0V13.08h-.202v2.1-.004Z"/><path fill="#C8B100" d="M7.299 15.131a.674.674 0 0 0 .21-.094V13.08h-.21l-.004 2.051H7.3Z"/><path fill="#AD1519" d="M6.145 13.125h1.743v-2.006H6.142v2.006h.003Z"/><path fill="#C8B100" d="M7.697 14.85c.087-.075.166-.255.195-.458l.004-1.312h-.2l.004 1.774-.003-.004Z"/><path fill="#AD1519" d="M9.635 13.125v1.2c0 .472-.39.859-.871.859a.87.87 0 0 1-.876-.863v-1.2h1.747"/><path fill="#C8B100" d="m8.207 14.029.003.018c0 .023-.018.038-.04.038a.036.036 0 0 1-.027-.01.037.037 0 0 1-.012-.028v-.018h-.055a.096.096 0 0 0 .012.067.09.09 0 0 0 .054.041v.147h.057v-.147a.093.093 0 0 0 .038-.022.099.099 0 0 0 .024-.038h.159v-.045h-.217m.788 0v.045h-.144a.095.095 0 0 1-.011.023l.166.195-.043.037-.167-.198-.007.003v.327h-.058v-.327H8.72l-.173.195-.044-.037.17-.199a.083.083 0 0 1-.007-.015H8.52v-.056h.47v.007Zm.094 0v.045h.16c.01.03.032.053.06.06v.147h.059v-.147a.09.09 0 0 0 .047-.033.096.096 0 0 0 .018-.057v-.018H9.37l.004.018a.037.037 0 0 1-.037.038c-.025 0-.043-.015-.043-.038 0-.006 0-.013.004-.018h-.214m-.242.828a.544.544 0 0 0 .134-.037l.029.052a.618.618 0 0 1-.156.045.098.098 0 0 1-.034.055.092.092 0 0 1-.06.02.092.092 0 0 1-.057-.021.097.097 0 0 1-.033-.054.614.614 0 0 1-.166-.045l.028-.052a.482.482 0 0 0 .145.037.094.094 0 0 1 .054-.048v-.252h.058v.252a.09.09 0 0 1 .058.052v-.004Zm-.398-.082-.029.052a.608.608 0 0 1-.13-.116.11.11 0 0 1-.09-.019.09.09 0 0 1-.033-.063.093.093 0 0 1 .022-.068l.004-.004a.59.59 0 0 1-.047-.18h.061a.506.506 0 0 0 .036.15c.018 0 .036 0 .05.008l.149-.169.047.038-.148.168a.1.1 0 0 1-.004.105c.033.038.07.07.112.098Zm-.217-.18c.011-.015.036-.019.055 0 .018.019.018.037.003.052a.043.043 0 0 1-.028.014.043.043 0 0 1-.03-.01.039.039 0 0 1-.009-.043.037.037 0 0 1 .01-.013Zm-.08-.169-.057-.011-.01-.161.06-.023v.094c0 .037 0 .067.008.101Zm.051-.199.062.015v.083c0-.03.01.079.01.079l-.06.022a.545.545 0 0 1-.012-.101v-.098Zm.203.514a.56.56 0 0 0 .173.098l.015-.06a.492.492 0 0 1-.145-.075l-.043.037Zm-.029.053a.626.626 0 0 0 .174.097l-.044.041a.667.667 0 0 1-.145-.075l.015-.063Zm.08-.353.057.026.109-.123-.036-.053-.13.15Zm-.047-.037-.037-.053.109-.124.058.027-.13.15Zm.654.37.029.053a.612.612 0 0 0 .13-.116.11.11 0 0 0 .09-.019.09.09 0 0 0 .033-.063.093.093 0 0 0-.022-.068l-.003-.004a.58.58 0 0 0 .047-.18h-.062a.514.514 0 0 1-.036.15.106.106 0 0 0-.05.008l-.149-.169-.047.038.148.168a.093.093 0 0 0 .004.105.548.548 0 0 1-.112.098Zm.217-.18a.042.042 0 0 0-.054 0 .038.038 0 0 0-.004.052.043.043 0 0 0 .028.015.045.045 0 0 0 .03-.01.039.039 0 0 0 .009-.043.037.037 0 0 0-.009-.013Zm.08-.168.057-.011.011-.161-.061-.023v.094c0 .037 0 .071-.007.105v-.004Zm-.051-.199-.062.015v.083c0-.03-.01.079-.01.079l.061.022.01-.101v-.098Zm-.203.514a.564.564 0 0 1-.173.098l-.015-.06a.492.492 0 0 0 .145-.075l.043.037Zm.03.053a.626.626 0 0 1-.174.097l.043.041a.666.666 0 0 0 .145-.075l-.015-.063Zm-.08-.353-.058.026-.105-.123.036-.053.127.15Zm.047-.037.036-.053-.109-.124-.057.027.13.15Zm-.727-.327.018.06h.163l.018-.06h-.199Zm.763 0-.018.06h-.163l-.018-.06h.199Zm-.42.822c0-.023.019-.038.04-.038.005 0 .01 0 .015.002a.036.036 0 0 1 .022.02c.002.005.003.01.003.016a.037.037 0 0 1-.036.037.039.039 0 0 1-.03-.01.042.042 0 0 1-.014-.027Zm.07-.293.06-.015v-.161l-.06-.019v.195Zm-.059 0-.061-.015v-.161l.061-.019v.195Z"/><path fill="#C8B100" d="M8.076 14.033c.008-.038.037-.06.066-.075v-.196h.057v.2c.03.01.055.033.062.06h.159v.01h-.217a.042.042 0 0 0-.036-.023c-.015.001-.025.012-.036.024h-.055Zm.442 0v-.012h.148a.087.087 0 0 1 .007-.011l-.18-.214.043-.037.18.21.008-.004v-.277h.058v.273h.01l.178-.206.043.037-.177.207.01.022h.145v.011h-.473Zm.78 0a.039.039 0 0 1 .036-.023c.019 0 .03.011.037.023h.058c-.007-.038-.033-.06-.065-.075v-.196h-.058v.2a.1.1 0 0 0-.062.06h-.159v.01h.217M8.21 13.47l.217.255.047-.037-.22-.252.01-.022h.16v-.064h-.16a.097.097 0 0 0-.035-.047.091.091 0 0 0-.055-.017.09.09 0 0 0-.068.026.098.098 0 0 0-.03.068.1.1 0 0 0 .018.056.09.09 0 0 0 .048.034v.195h.057v-.195h.011Zm1.157 0v.199h-.061v-.195a.081.081 0 0 1-.015-.008l-.217.255-.047-.037.225-.259-.004-.011h-.163v-.064h.163a.097.097 0 0 1 .034-.046.092.092 0 0 1 .053-.018.09.09 0 0 1 .067.026.098.098 0 0 1 .03.068c0 .02-.007.04-.02.057a.09.09 0 0 1-.048.033h.003Zm-.582 0v.124h-.061v-.12a.093.093 0 0 1-.038-.023.098.098 0 0 1-.024-.037h-.144v-.064h.144a.097.097 0 0 1 .036-.047.091.091 0 0 1 .055-.017c.043 0 .08.027.09.064h.145v.06h-.145a.094.094 0 0 1-.058.06Zm-.643.15-.062.015v.161l.062.019v-.195Zm.057 0 .062.015v.161l-.062.019v-.195Zm1.107 0-.062.015v.161l.062.019v-.195Zm.058 0 .061.015v.161l-.061.019v-.195Zm-.922.03.057-.026.105.123-.036.053-.126-.15Zm-.047.037-.037.053.109.124.058-.027-.13-.15Zm.669-.04-.058-.027-.109.124.036.052.13-.15Zm.043.037.036.052-.108.124-.055-.026.127-.15Zm-.734.337.018-.06h.163l.018.06h-.2Zm-.242-.637c0-.023.018-.038.043-.038.01 0 .019.004.026.011.006.007.01.017.01.027 0 .022-.014.037-.036.037a.039.039 0 0 1-.039-.022.042.042 0 0 1-.004-.015Zm.437.03-.018.06h-.163l-.018-.06h.2Zm0-.06-.018-.06h-.163l-.018.06h.2Zm.568.667-.018-.06h-.163l-.018.06h.199Zm.159-.637c0-.023.018-.038.04-.038a.036.036 0 0 1 .028.01.037.037 0 0 1 .012.028.037.037 0 0 1-.037.037.039.039 0 0 1-.039-.022.042.042 0 0 1-.004-.015Zm-.582 0c0-.023.018-.038.04-.038a.036.036 0 0 1 .036.022.04.04 0 0 1 .003.016c0 .022-.018.037-.04.037a.039.039 0 0 1-.026-.01.042.042 0 0 1-.013-.027Zm.224.03.018.06h.166l.019-.06h-.203Zm0-.06.018-.06h.166l.019.06h-.203Zm-.213.187-.062.019v.161l.062.019v-.203m.061 0 .058.02v.16l-.058.02v-.2Z"/><path fill="#058E6E" d="M8.662 14.051a.1.1 0 0 1 .029-.066.092.092 0 0 1 .13 0 .1.1 0 0 1 .03.066.099.099 0 0 1-.03.064.092.092 0 0 1-.065.026c-.05 0-.094-.037-.094-.09Z"/><path fill="#DB4446" d="M8.778 11.614v-.023l.004-.011-.084-.004a.21.21 0 0 1-.083-.045c-.029-.026-.04-.037-.058-.045-.047-.007-.083.015-.083.015s.036.015.062.049a.155.155 0 0 0 .065.052c.021.008.094 0 .112.004l.065.008Z"/><path fill="#ED72AA" d="M9.038 11.531v.053c.008.022-.003.045 0 .056 0 .015.004.022.011.034l.007.033-.025-.018-.022-.015v.037c.004.008.011.03.022.041l.036.05c.007.018.004.052.004.052s-.015-.027-.03-.03L9 11.797s.025.03.025.057c0 .03-.011.06-.011.06s-.01-.027-.029-.042l-.036-.033s.014.045.014.075V12l-.032-.038-.036-.026c0-.007.018.023.021.041 0 .02.011.087.065.17.037.048.084.134.192.108.109-.03.069-.18.047-.251a.65.65 0 0 1-.036-.173c0-.03.022-.109.018-.124a.311.311 0 0 1 .007-.116c.015-.049.026-.067.033-.086.007-.023.014-.034.014-.049l.004-.049.025.05.004.055s.003-.037.036-.06c.029-.022.065-.04.072-.052.011-.011.011-.019.011-.019s0 .068-.022.098l-.061.075s.025-.012.043-.012H9.4s-.022.015-.05.06c-.03.038-.019.045-.037.08-.022.037-.036.037-.061.055-.037.03-.018.158-.015.177.007.018.073.168.073.206 0 .037.007.12-.055.172-.04.038-.108.038-.123.045-.014.012-.043.042-.043.105 0 .064.022.075.036.09.022.02.043.008.047.023.007.011.007.019.018.026.007.008.011.015.007.03 0 .011-.029.041-.04.064l-.028.09c0 .007-.004.037.003.049 0 0 .033.037.011.045-.014.007-.029-.008-.036-.008l-.033.019c-.01-.004-.01-.011-.014-.03l-.004-.026c-.007 0-.01.007-.014.018 0 .008 0 .03-.01.03-.008 0-.019-.015-.03-.018-.007 0-.029-.008-.029-.015 0-.012.015-.034.026-.038.014 0 .028-.011.018-.019-.011-.007-.018-.007-.026 0-.007.008-.029 0-.025-.007v-.03c0-.008-.014-.019.004-.03.021-.011.029.007.05.004.022 0 .03-.012.036-.023.008-.011.008-.037-.007-.052-.014-.02-.025-.02-.032-.03l-.011-.034v.082l-.026-.03c-.01-.01-.021-.048-.021-.048v.048c0 .015.01.027.007.03-.004.004-.029-.026-.036-.03a.138.138 0 0 1-.036-.037l-.015-.053a.163.163 0 0 1 0-.056l.015-.037h-.051c-.025 0-.043-.012-.054.007-.011.019-.007.056.007.105.01.045.018.071.014.079a.113.113 0 0 1-.025.03h-.032a.087.087 0 0 0-.044-.011h-.047l-.04-.012c-.01.004-.028.012-.021.027.007.022-.007.026-.018.026l-.033-.008c-.014-.003-.032 0-.029-.015 0-.015.007-.015.015-.026.007-.011.007-.019 0-.019h-.022c-.007.008-.018.02-.029.015-.007-.003-.014-.015-.014-.037 0-.023-.026-.045 0-.041.018 0 .047.015.05 0 .007-.012 0-.015-.007-.027-.007-.01-.029-.015-.01-.026l.024-.019c.004-.007.015-.03.026-.022.021.007 0 .026.021.049.022.026.037.037.073.03.036 0 .047-.008.047-.02l-.004-.037v-.037s-.014.011-.018.022l-.014.03v-.075a.3.3 0 0 0-.008-.03l-.01.034-.004.038s-.025-.02-.018-.057c.003-.026-.004-.06.003-.075.008-.01.026-.056.073-.06h.094l.072-.01s-.101-.053-.126-.072a.352.352 0 0 1-.073-.075l-.021-.06s-.019 0-.037.011a.183.183 0 0 0-.043.038l-.025.037.003-.045v-.03s-.014.045-.036.064l-.05.037v-.03l.007-.037s-.015.03-.04.037c-.025 0-.065 0-.069.015 0 .02.007.038 0 .053 0 .011-.014.019-.014.019l-.03-.015c-.014 0-.024.007-.024.007s-.011-.015-.008-.026c.004-.008.026-.023.018-.03l-.029.007c-.01.004-.028.012-.028-.007 0-.015.007-.026 0-.038 0-.01 0-.018.007-.022l.043-.004c0-.007-.007-.019-.029-.022-.021-.004-.029-.02-.018-.03.011-.008.011-.012.018-.023.004-.007.007-.026.026-.019.018.012.014.03.036.038a.14.14 0 0 0 .072-.008L8.445 12l.055-.038-.037-.03c-.01-.01-.025-.033-.036-.037a.286.286 0 0 0-.065-.023.323.323 0 0 1-.061-.018l.029-.012c.007-.007.021-.022.028-.022h.011-.05c-.011-.004-.036-.023-.047-.023l-.03.004s.03-.015.051-.019l.037-.003s-.033-.012-.04-.023l-.022-.037c-.007-.004-.01-.02-.022-.02l-.036.012c-.014 0-.021-.007-.021-.022l-.004-.02c-.007-.01-.022-.03-.007-.037h.05c0-.007-.018-.022-.029-.03-.014-.007-.036-.018-.025-.03l.029-.018c.007-.012.01-.038.025-.027.015.008.03.045.04.042.01 0 .01-.03.01-.038 0-.015 0-.037.008-.034.011 0 .018.015.036.02.015 0 .036-.005.036.007 0 .01-.01.026-.021.037-.011.011-.015.038-.011.053.007.018.025.045.043.052.015.011.044.019.062.034.018.011.061.045.076.049l.029.015s.018-.008.04-.008c.025 0 .075 0 .093-.007.022-.008.047-.023.037-.038-.004-.022-.047-.037-.044-.052 0-.015.018-.015.044-.015.029 0 .065.003.072-.038.007-.037.007-.056-.029-.067-.036-.008-.065-.008-.072-.038-.008-.026-.015-.034-.008-.041.011-.008.022-.011.051-.015.029 0 .058 0 .069-.008.007-.007.01-.026.021-.033a.22.22 0 0 1 .051-.015s.05.026.098.063c.029.024.055.05.08.08Z"/><path fill="#000" d="m8.677 11.505-.008-.023v-.01s.03 0 .026.01c0 .008-.007.008-.011.012l-.007.01Zm.141-.052v-.015s.025 0 .036.01a.208.208 0 0 1 .032.038l-.028-.015h-.019l-.01-.004v-.01h-.011"/><path fill="#DB4446" d="M8.29 11.497s.018.015.029.015h.029s.007-.018.003-.03c-.007-.045-.043-.052-.043-.052s.01.026.003.037a.074.074 0 0 1-.021.03Zm-.08.038s-.014-.026-.047-.023c-.029 0-.05.03-.05.03h.043c.01.012.014.038.014.038l.026-.023a.254.254 0 0 0 .014-.022Zm-.036.113s-.029.003-.043.022c-.015.019-.011.049-.011.049s.014-.019.032-.019l.036.008-.003-.03-.011-.03Z"/><path fill="#000" d="m8.68 11.644.011-.019.011.019h-.025m.033 0 .01-.019.015.019h-.03m-.01-.12.029.01-.026.016-.003-.023m.032.008.026.007-.018.015-.008-.022Z"/><path fill="#DB4446" d="M8.26 12.015s-.014-.019-.039-.011c-.025 0-.043.034-.043.034s.021-.008.036-.004c.014.003.022.015.022.015l.014-.015.01-.023m-.028.109s-.022 0-.04.011c-.018.015-.018.045-.018.045s.015-.015.029-.011l.033.007v-.022c.007-.015-.004-.03-.004-.03Zm.051.097s0 .03.01.049c.015.019.04.019.04.019l-.01-.027c0-.014.01-.03.01-.03s-.01-.01-.025-.01h-.025Zm.253.256s-.015-.023-.04-.023-.05.026-.05.026.028-.004.035.008l.019.022.018-.011.018-.022Zm-.073.101s-.036-.004-.05.01c-.015.02-.015.05-.015.05s.022-.023.036-.02a.08.08 0 0 1 .037.012V12.6l-.011-.026m.068.105s-.01.026 0 .041c.011.019.037.03.037.03s-.011-.015-.008-.03c.004-.011.026-.03.026-.03l-.05-.008m.429.041s-.029-.007-.043 0c-.018.012-.029.053-.029.053s.025-.022.043-.019a.08.08 0 0 1 .037.011v-.03l-.008-.014Zm.015.109s-.022.023-.015.041l.022.038s0-.026.007-.037l.037-.012-.026-.018a.588.588 0 0 1-.025-.012Zm.108.031s-.01.03.008.048c.021.019.036.019.036.019s-.011-.026-.007-.041a.039.039 0 0 1 .018-.026l-.03-.008-.025.011"/><path fill="#FFD691" d="M7.979 14.865c.072.022.108.075.108.142 0 .087-.08.15-.18.15-.109 0-.192-.063-.192-.15 0-.063.036-.135.108-.142l-.007-.015-.025-.026h.043l.03.018.017-.026a.05.05 0 0 1 .022-.019l.022.023.01.019.026-.015.029-.012s0 .015-.008.027l-.003.026Z"/><path fill="#058E6E" d="M7.888 15.251s-.137-.098-.199-.112c-.072-.015-.162 0-.198 0 0 0 .043.03.065.052a.405.405 0 0 0 .119.067.41.41 0 0 0 .217-.007m.036.008s.087-.094.181-.11c.108-.014.18.012.224.023l-.054.03c-.018.011-.072.056-.145.06-.072 0-.159-.011-.173-.007l-.033.003Z"/><path fill="#AD1519" d="M7.903 15.143a.18.18 0 0 1-.057-.134.186.186 0 0 1 .057-.133.181.181 0 0 1 .054.132.19.19 0 0 1-.054.135Z"/><path fill="#058E6E" d="M7.867 15.338s.021-.057.021-.102l-.003-.079h.029s.01.042.01.075l-.003.09-.025.004-.03.011Z"/><path fill="#fff" d="M9.613 10.151c0-.019.018-.037.036-.037.022 0 .04.018.04.037a.037.037 0 0 1-.036.037.035.035 0 0 1-.026-.01.038.038 0 0 1-.01-.027m.047-.094c0-.022.018-.037.04-.037.021 0 .036.015.036.037 0 .023-.015.038-.036.038a.036.036 0 0 1-.026-.011.038.038 0 0 1-.01-.027m.032-.112c0-.019.018-.038.036-.038.022 0 .04.02.04.038 0 .019-.018.037-.036.037a.035.035 0 0 1-.028-.01.038.038 0 0 1-.012-.027Zm.004-.12c0-.019.018-.038.036-.038.022 0 .04.02.04.038a.037.037 0 0 1-.036.037.036.036 0 0 1-.026-.01.038.038 0 0 1-.01-.027m-.033-.113c0-.022.018-.037.036-.037.025 0 .043.015.043.037 0 .023-.018.038-.04.038a.036.036 0 0 1-.025-.011.038.038 0 0 1-.01-.027m-.062-.108c0-.02.018-.038.036-.038.025 0 .04.019.04.038 0 .018-.015.037-.036.037a.036.036 0 0 1-.026-.01.038.038 0 0 1-.01-.027m-.08-.087c0-.022.014-.037.036-.037s.036.015.036.037c0 .023-.014.038-.036.038a.036.036 0 0 1-.025-.011.038.038 0 0 1-.011-.027Zm-.094-.075c0-.018.018-.037.04-.037.01 0 .018.004.025.01a.038.038 0 0 1 0 .054.036.036 0 0 1-.025.01c-.022 0-.036-.014-.036-.037m-.109-.056c0-.022.015-.037.036-.037.022 0 .036.015.036.037 0 .023-.014.038-.036.038a.036.036 0 0 1-.025-.011.038.038 0 0 1-.011-.027Zm-.116-.045c0-.019.018-.037.04-.037a.04.04 0 0 1 .026.01.038.038 0 0 1 0 .054.036.036 0 0 1-.051 0 .038.038 0 0 1-.011-.027m-.127-.022c0-.019.015-.038.037-.038.021 0 .036.019.036.038 0 .018-.015.037-.036.037a.036.036 0 0 1-.026-.01.038.038 0 0 1-.01-.027Zm-.119-.008c0-.019.015-.037.036-.037.022 0 .036.018.036.037s-.014.038-.036.038a.036.036 0 0 1-.025-.011.038.038 0 0 1-.01-.027Zm-.119.008c0-.023.018-.038.036-.038.025 0 .04.015.04.038 0 .022-.015.037-.036.037a.036.036 0 0 1-.026-.01.038.038 0 0 1-.01-.027m-.12 0c0-.023.018-.038.036-.038.022 0 .04.015.04.038a.037.037 0 0 1-.036.037.035.035 0 0 1-.028-.01.038.038 0 0 1-.012-.027Zm.058.101c0-.019.018-.038.036-.038.025 0 .04.02.04.038a.037.037 0 0 1-.036.037.036.036 0 0 1-.026-.01.038.038 0 0 1-.01-.027m.021.116c0-.022.015-.037.036-.037.022 0 .037.015.037.037a.038.038 0 0 1-.037.038.036.036 0 0 1-.025-.011.038.038 0 0 1-.01-.027Zm0 .113c0-.02.022-.038.04-.038.01 0 .019.004.026.011a.038.038 0 0 1 0 .053.036.036 0 0 1-.052 0 .038.038 0 0 1-.01-.026m-.036.105c0-.02.018-.038.036-.038.025 0 .04.019.04.038a.035.035 0 0 1-.037.037.036.036 0 0 1-.025-.01.038.038 0 0 1-.01-.027m-.07.097c0-.019.019-.037.037-.037.025 0 .043.018.043.037s-.018.038-.04.038c-.021 0-.036-.015-.036-.038m-.079-.607c0-.02.018-.038.04-.038.01 0 .018.004.025.011a.038.038 0 0 1 0 .053.036.036 0 0 1-.051 0 .038.038 0 0 1-.01-.026m-.106-.057c0-.022.015-.037.037-.037.021 0 .036.015.036.037 0 .023-.015.038-.036.038a.036.036 0 0 1-.026-.011.038.038 0 0 1-.01-.027Zm-.115-.037c0-.023.018-.038.036-.038.022 0 .04.015.04.038a.039.039 0 0 1-.037.037c-.021 0-.04-.018-.04-.037Zm-.12-.023c0-.018.018-.037.037-.037.021 0 .04.019.04.037 0 .02-.019.038-.037.038a.035.035 0 0 1-.028-.01.038.038 0 0 1-.012-.028Zm-.119.004c0-.022.018-.037.04-.037.021 0 .036.015.036.037 0 .019-.015.038-.036.038a.036.036 0 0 1-.026-.011.038.038 0 0 1-.01-.027m-.123.019c0-.019.018-.038.036-.038.025 0 .04.02.04.038a.037.037 0 0 1-.036.037.036.036 0 0 1-.026-.01.038.038 0 0 1-.01-.027m-.116.041c0-.019.018-.037.036-.037.021 0 .04.018.04.037s-.019.038-.037.038a.035.035 0 0 1-.028-.01.038.038 0 0 1-.011-.028Zm-1.902.96c0-.019.014-.037.036-.037.021 0 .036.018.036.037 0 .023-.015.037-.036.037a.035.035 0 0 1-.026-.01.038.038 0 0 1-.01-.027Zm-.055-.094c0-.022.018-.037.036-.037.022 0 .037.015.037.037 0 .023-.015.038-.037.038a.036.036 0 0 1-.025-.011.038.038 0 0 1-.01-.027Zm-.035-.112c0-.019.017-.038.035-.038.026 0 .04.02.04.038a.036.036 0 0 1-.036.037.036.036 0 0 1-.026-.01.038.038 0 0 1-.01-.027m-.008-.12c0-.019.019-.038.037-.038.021 0 .04.02.04.038a.037.037 0 0 1-.037.037.036.036 0 0 1-.025-.01.038.038 0 0 1-.01-.027m.024-.113c0-.022.018-.037.037-.037.021 0 .036.015.036.037 0 .023-.015.038-.036.038a.036.036 0 0 1-.026-.011.038.038 0 0 1-.01-.027Zm.058-.108c0-.02.018-.038.036-.038.022 0 .04.019.04.038 0 .018-.018.037-.036.037a.036.036 0 0 1-.026-.01.038.038 0 0 1-.01-.027m.076-.087c0-.022.014-.037.036-.037s.036.015.036.037c0 .023-.014.038-.036.038a.036.036 0 0 1-.026-.011.038.038 0 0 1-.01-.027Zm.09-.075c0-.018.015-.037.036-.037.022 0 .037.019.037.037a.038.038 0 0 1-.037.038.036.036 0 0 1-.025-.011.038.038 0 0 1-.01-.027Zm.108-.056c0-.022.015-.037.037-.037s.036.015.036.037c0 .023-.014.038-.036.038a.036.036 0 0 1-.026-.011.038.038 0 0 1-.01-.027Zm.113-.045c0-.019.018-.037.036-.037a.04.04 0 0 1 .026.01.038.038 0 0 1 0 .054.036.036 0 0 1-.052 0 .038.038 0 0 1-.01-.027Zm.123-.022c0-.019.018-.038.04-.038.01 0 .018.004.025.011a.038.038 0 0 1 0 .053.036.036 0 0 1-.025.011.035.035 0 0 1-.037-.037m.12-.008c0-.019.014-.037.036-.037s.036.018.036.037-.014.038-.036.038a.036.036 0 0 1-.026-.011.038.038 0 0 1-.01-.027Zm.115.008c0-.023.019-.038.037-.038.021 0 .04.015.04.038a.037.037 0 0 1-.037.037.035.035 0 0 1-.028-.01.038.038 0 0 1-.012-.027Zm.116 0c0-.023.018-.038.036-.038.026 0 .044.015.044.038 0 .022-.018.037-.04.037a.036.036 0 0 1-.026-.01.038.038 0 0 1-.01-.027m-.062.101c0-.019.018-.038.036-.038.026 0 .04.02.04.038a.036.036 0 0 1-.036.037.036.036 0 0 1-.025-.01.038.038 0 0 1-.011-.027m-.025.116c0-.022.014-.037.036-.037.021 0 .036.015.036.037 0 .019-.015.038-.036.038a.036.036 0 0 1-.026-.011.038.038 0 0 1-.01-.027Zm-.008.113a.038.038 0 0 1 .077 0 .038.038 0 0 1-.037.037.036.036 0 0 1-.025-.01.038.038 0 0 1-.011-.027m.033.105c0-.02.018-.038.036-.038.021 0 .04.019.04.038a.037.037 0 0 1-.037.037.035.035 0 0 1-.028-.01.038.038 0 0 1-.011-.027Zm.065.097c0-.019.018-.037.036-.037.01 0 .019.004.025.01a.038.038 0 0 1 0 .054.036.036 0 0 1-.05 0 .038.038 0 0 1-.011-.027Zm.075-.607c0-.02.019-.038.037-.038.01 0 .018.004.025.011a.038.038 0 0 1 0 .053.036.036 0 0 1-.05 0 .038.038 0 0 1-.011-.026Zm.105-.057c0-.022.015-.037.037-.037.021 0 .036.015.036.037 0 .023-.015.038-.036.038a.036.036 0 0 1-.026-.011.038.038 0 0 1-.01-.027Zm.113-.037c0-.023.018-.038.036-.038.025 0 .04.015.04.038a.037.037 0 0 1-.037.037.037.037 0 0 1-.036-.037m.116-.023c0-.018.018-.037.036-.037.025 0 .04.019.04.037 0 .02-.015.038-.036.038a.036.036 0 0 1-.026-.011.038.038 0 0 1-.01-.027m.115.004c0-.022.015-.037.036-.037.022 0 .037.015.037.037a.038.038 0 0 1-.037.038.036.036 0 0 1-.025-.011.038.038 0 0 1-.01-.027Zm.119.019c0-.019.019-.038.037-.038.025 0 .04.02.04.038a.037.037 0 0 1-.037.037.036.036 0 0 1-.025-.01.038.038 0 0 1-.01-.027m.108.041c0-.019.018-.037.036-.037.025 0 .04.018.04.037s-.015.038-.037.038a.036.036 0 0 1-.025-.011.038.038 0 0 1-.01-.027"/><path fill="#C8B100" d="M6.746 11.584H6.71v-.038h-.055v.135h.058v.094H6.59v.262h.065v.537H6.53v.273h.983v-.273h-.126v-.537h.065v-.262h-.123v-.094h.058v-.131h-.058v.034H7.3v-.038h-.058v.038h-.04v-.038h-.057v.135H7.2v.094h-.119v-.293h.062v-.13h-.062v.033h-.036v-.038h-.054v.038h-.033v-.038H6.9v.135h.062v.293h-.12v-.094H6.9v-.131h-.058v.034H6.81v-.038h-.065v.038Zm-.217 1.263h.987-.987Zm0-.067h.987-.987Zm0-.068h.987-.987Zm0-.063h.987-.987Zm0-.075h.987-.987Zm.126-.06h.73-.73Zm0-.068h.73-.73Zm0-.075h.73-.73Zm0-.064h.73-.73Zm0-.067h.73-.73Zm0-.068h.73-.73Zm0-.063h.73-.73Zm-.065-.068h.86-.86Zm0-.067h.86-.86Zm0-.068h.86-.86Zm0-.067h.86-.86Zm.123-.064h.615-.615Zm.246-.068h.123-.123Zm0-.067h.123-.123Zm0-.068h.123-.123Zm0-.063h.123-.123Zm-.061-.083h.246-.246Zm-.188.281h.13-.13Zm-.051-.082h.239-.239Zm-.004 1.222v-.067.067Zm0-.135v-.063.063Zm-.065 0v.068-.068Zm.123.068v-.068.068Zm.062.067v-.067.067Zm0-.135v-.063.063Zm0-.138v-.06.06Zm0-.128v-.075.075Zm-.062.203v-.075.075Zm-.123 0v-.075.075Zm.253-.075v.075-.075Zm.055 0v-.06.06Zm-.185-.128v.068-.068Zm.127 0v.068-.068Zm.12 0v.068-.068Zm-.059.004v-.075.075Zm.062-.139v.064-.064Zm0-.135v.068-.068ZM6.9 12.11v.067-.067Zm.062-.064v.064-.064Zm-.12 0v.064-.064Zm-.126 0v.064-.064Zm-.058-.068v.068-.068Zm.12 0v.068-.068Zm.122 0v.068-.068Zm.062-.067v.067-.067Zm-.12 0v.067-.067Zm-.126 0v.067-.067Zm-.058-.068v.068-.068Zm.242 0v.068-.068Zm-.123-.13v.067-.068Zm.554 0h-.127.127Zm.054-.083h-.239.239Zm.003 1.222v-.067.067Zm0-.135v-.064.064Zm.066 0v.068-.068Zm-.123.068v-.072.072Zm-.062.063v-.067.067Zm0-.135v-.063.063Zm0-.138v-.06.06Zm0-.128v-.075.075Zm.062.203v-.075.075Zm.123 0v-.075.075Zm-.254-.075v.075-.075Zm-.054 0v-.06.06Zm.185-.128v.068-.068Zm-.127 0v.068-.068Zm-.12 0v.068-.068Zm.062 0v-.075.075Zm-.061-.139v.064-.064Zm0-.135v.068-.068Zm.061-.067v.067-.067Zm-.061-.064v.064-.064Zm.119 0v.064-.064Zm.127 0v.064-.064Zm.057-.067v.067-.067Zm-.119 0v.067-.067Zm-.123 0v.067-.067Zm-.061-.068v.068-.068Zm.119 0v.068-.068Zm.127 0v.068-.068Zm.057-.067v.067-.067Zm-.242 0v.067-.067Zm.123-.132v.068-.068Zm-.253.743v-.075.075Zm0-.278v-.067.067Zm0 .135v-.067.067Zm0-.266v-.067.067Zm0-.135v-.064.064Zm0-.199v-.067.067Zm0-.13v-.068.067Zm-.3.104h.126-.126Zm.246-.199h.123-.123Zm.242.2h.127-.127Z"/><path fill="#C8B100" d="M7.183 12.847v-.176c0-.03-.014-.131-.166-.131-.145 0-.16.101-.16.131v.176h.326Z"/><path fill="#C8B100" d="m6.912 12.682-.08-.01c0-.035.008-.083.033-.098l.072.056a.09.09 0 0 0-.025.052Zm.217 0 .08-.01c0-.035-.008-.083-.033-.098l-.072.056a.09.09 0 0 1 .025.052Zm-.08-.086.037-.075a.184.184 0 0 0-.073-.015l-.061.015.04.075h.057Zm-.151-.206v-.184a.088.088 0 0 0-.09-.09c-.055 0-.088.038-.088.09v.184h.178Zm.245 0v-.184c0-.049.037-.09.09-.09.055 0 .088.038.088.09v.184h-.178Zm-.061-.45.014-.165h-.151l.007.165h.13Zm.12 0-.015-.165h.159l-.018.165H7.2Zm-.362 0 .007-.165h-.152l.018.165h.127Z"/><path fill="#0039F0" d="M7.129 12.847v-.15a.103.103 0 0 0-.112-.1c-.087 0-.105.074-.105.1v.15h.217Zm-.25-.476v-.157c0-.038-.021-.083-.072-.083-.05 0-.072.041-.072.083v.16h.145v-.003Zm.283 0v-.157c0-.038.025-.083.072-.083.047 0 .072.041.072.083v.16h-.144v-.003Z"/><path fill="#AD1519" d="M7.328 13.117c0-.364.253-.66.564-.66.311 0 .564.296.564.66 0 .364-.253.656-.564.656-.311 0-.564-.292-.564-.656Z"/><path fill="#005BBF" d="M7.494 13.114c0-.263.181-.48.398-.48.217 0 .398.213.398.48 0 .27-.181.487-.398.487-.217 0-.398-.218-.398-.488Z"/><path fill="#C8B100" d="M7.704 12.784s-.047.052-.047.1a.231.231 0 0 0 .022.09c-.008-.018-.03-.03-.051-.03a.05.05 0 0 0-.05.05l.007.03.018.033c.003-.01.018-.018.036-.018s.036.015.036.037v.008h-.043v.037h.036l-.03.056.037-.015.029.034.029-.034.036.015-.025-.056h.036v-.037h-.04v-.012a.04.04 0 0 1 .01-.026.036.036 0 0 1 .026-.011c.015 0 .026.011.036.022l.015-.037.007-.026a.053.053 0 0 0-.016-.035.05.05 0 0 0-.034-.014c-.026 0-.044.011-.051.034 0 0 .022-.045.022-.094s-.051-.101-.051-.101Z"/><path fill="#C8B100" d="M7.632 13.121h.148v-.037h-.148v.037Zm.441-.337s-.047.052-.047.1c0 .05.022.09.022.09-.008-.018-.026-.03-.051-.03a.05.05 0 0 0-.05.05l.007.03.018.033a.04.04 0 0 1 .036-.018c.01 0 .019.004.025.01a.04.04 0 0 1 .01.027v.008h-.042v.037h.036l-.03.056.037-.015.029.034.029-.034.036.015-.025-.056h.036v-.037h-.04v-.012a.04.04 0 0 1 .01-.026.036.036 0 0 1 .026-.011c.015 0 .03.011.036.022l.015-.037.007-.026a.053.053 0 0 0-.016-.035.05.05 0 0 0-.035-.014c-.021 0-.043.011-.05.034 0 0 .021-.045.021-.094s-.05-.101-.05-.101Z"/><path fill="#C8B100" d="M8 13.121h.149v-.037H8v.037Zm-.112-.011s-.047.056-.047.105c0 .049.022.09.022.09a.053.053 0 0 0-.05-.034c-.03 0-.051.023-.051.053l.007.026.018.037c.004-.015.018-.022.036-.022.01 0 .02.004.026.01a.04.04 0 0 1 .01.027v.012h-.043v.037h.036l-.029.056.036-.015.03.034.028-.037.036.018-.025-.056h.036v-.037h-.04v-.012c0-.01.004-.02.011-.026a.036.036 0 0 1 .026-.011c.014 0 .025.007.032.022l.018-.037.008-.026a.053.053 0 0 0-.015-.037.05.05 0 0 0-.036-.016.051.051 0 0 0-.05.038s.021-.045.021-.094-.05-.101-.05-.101"/><path fill="#C8B100" d="M7.816 13.447h.148v-.037h-.148v.037Zm1.204-2.07h-.01a.055.055 0 0 1-.011.015.021.021 0 0 1-.03 0 .019.019 0 0 1-.003-.015.017.017 0 0 1-.01.003c-.002 0-.005 0-.008-.003-.011-.003-.011-.018-.004-.026v-.019h-.01l-.004.008c-.007.011-.018.011-.025.007v-.007h-.011c-.018.007-.026-.038-.026-.045l-.007.007s.007.027.004.045a.12.12 0 0 1-.011.045.323.323 0 0 1 .105.06.331.331 0 0 1 .08.087l.043-.02c.021-.007.047-.007.047-.007l.007-.007c-.01 0-.054.004-.054-.015v-.008h-.008c-.007-.007-.007-.015 0-.026l.008-.004v-.01H9.07l-.007.003c-.008.011-.022.011-.03 0a.015.015 0 0 1-.004-.015.02.02 0 0 1-.017 0c-.007-.008-.01-.019 0-.03l.007-.011v-.012Z"/><path fill="#000" d="M8.94 11.4h.008v.011h-.004c-.003 0-.003-.007 0-.007m.029.026-.01-.008v-.007h.003l.014.011.011.008v.007h-.007l-.01-.011Zm-.061-.041-.007-.008s-.004 0 0-.004l.01.004.011.004v.007h-.003l-.011-.003Zm-.032-.027h.006v.008H8.88s-.003-.004 0-.008Zm.13.094v-.007h-.011l.003.007h.007Zm.021.026.007.008h.004c.004 0 0-.004 0-.008l-.007-.007-.008-.008h-.003v.008l.007.007Zm.033.03v-.01h-.011v.007h.01"/><path fill="#C8B100" d="M8.97 11.291h-.022l-.004.034v.004h.008l.025-.02-.011-.018"/><path fill="#C8B100" d="M8.912 11.31v.019l.032.003h.004v-.007l-.018-.026-.018.01Z"/><path fill="#C8B100" d="m8.977 11.347-.015.012-.021-.027v-.003h.04v.018"/><path fill="#C8B100" d="M8.937 11.325a.01.01 0 0 1 .015 0 .011.011 0 0 1 0 .011.01.01 0 0 1-.011 0 .011.011 0 0 1-.004-.011Zm-.076-.034-.007-.026-.015-.015s.015-.008.03.004c.014.01 0 .033 0 .033l-.008.004Z"/><path fill="#C8B100" d="m8.897 11.302-.014.015-.022-.022v-.008h.036v.015Z"/><path fill="#C8B100" d="m8.858 11.287.01-.003v.01c0 .008-.003.008-.007.008l-.003-.01m.188.052h-.019l-.01.026v.008h.007l.029-.015-.007-.02Z"/><path fill="#C8B100" d="M8.988 11.355v.019l.029.007h.003v-.007l-.014-.027-.018.008Z"/><path fill="#C8B100" d="m9.05 11.4-.019.007-.014-.026v-.008h.003l.033.008-.004.019Z"/><path fill="#C8B100" d="M9.01 11.37h.014a.011.011 0 0 1 .003.007.012.012 0 0 1-.003.008.01.01 0 0 1-.011 0 .012.012 0 0 1-.003-.008.01.01 0 0 1 .003-.007m.101.041.004.019-.03.011h-.006v-.007l.014-.03.018.007Z"/><path fill="#C8B100" d="m9.107 11.467-.018.004-.01-.03v-.004h.006l.03.012-.004.018"/><path fill="#C8B100" d="m9.056 11.411-.007.019.033.011h.003v-.004l-.01-.03-.019.004Z"/><path fill="#C8B100" d="M9.089 11.445a.012.012 0 0 0 0-.011.01.01 0 0 0-.015 0 .012.012 0 0 0 0 .01.01.01 0 0 0 .015 0Zm.047.067h.029l.018.012s.004-.015-.01-.026c-.012-.012-.03.007-.03.007l-.007.007Z"/><path fill="#C8B100" d="m9.118 11.479-.01.018.028.02v-.005h.007l-.003-.037-.022.004Z"/><path fill="#C8B100" d="M9.143 11.512s.004-.003 0-.007h-.01c-.008 0-.008.004-.004.007h.01"/></g></svg>